<svg id="Layer_1" data-name="Layer 1" xmlns="http://www.w3.org/2000/svg" viewBox="0 0 564.27 207.6"><defs><style>.cls-1{font-size:20px;font-family:Menlo;font-weight:700;}.cls-2,.cls-3{fill:#010101;}.cls-3{white-space:pre;}.cls-4{fill:none;}.cls-5,.cls-6{fill:#fff;}.cls-6{fill-rule:evenodd;}</style></defs><title>cables</title><text class="cls-1" transform="translate(42.34 59.45)"><tspan class="cls-2">As an expression, fiber oopstics takes </tspan><tspan class="cls-2" x="0" y="25">its name from </tspan><tspan x="168.57" y="25">fiber optic cables</tspan><tspan class="cls-3" x="385.31" y="25"> — </tspan><tspan class="cls-2"><tspan x="0" y="50">the transoceanic, undersea cables which </tspan><tspan x="0" y="75">carry internet traffic across networks </tspan><tspan x="0" y="100">and continents via pulses of light.</tspan></tspan></text><rect class="cls-4" y="123.4" width="45" height="39.2"/><rect class="cls-5" x="20.91" y="126.3" width="4.5" height="7.28"/><rect class="cls-5" x="20.91" y="139.35" width="4.5" height="7.28"/><rect class="cls-5" x="20.91" y="152.36" width="4.5" height="7.28"/><rect class="cls-4" y="84.2" width="45" height="39.2"/><rect class="cls-5" x="20.91" y="87.1" width="4.5" height="7.28"/><rect class="cls-5" x="20.91" y="100.15" width="4.5" height="7.28"/><rect class="cls-5" x="20.91" y="113.16" width="4.5" height="7.28"/><rect class="cls-4" y="45" width="45" height="39.2"/><rect class="cls-5" x="20.91" y="47.89" width="4.5" height="7.28"/><rect class="cls-5" x="20.91" y="60.94" width="4.5" height="7.28"/><rect class="cls-5" x="20.91" y="73.95" width="4.5" height="7.28"/><rect class="cls-4" x="45" width="39.52" height="45"/><rect class="cls-5" x="74.26" y="20.91" width="7.34" height="4.5"/><rect class="cls-5" x="61.1" y="20.91" width="7.34" height="4.5"/><rect class="cls-5" x="47.99" y="20.91" width="7.34" height="4.5"/><rect class="cls-4" x="84.52" width="39.52" height="45"/><rect class="cls-5" x="113.79" y="20.91" width="7.34" height="4.5"/><rect class="cls-5" x="100.63" y="20.91" width="7.34" height="4.5"/><rect class="cls-5" x="87.51" y="20.91" width="7.34" height="4.5"/><rect class="cls-4" x="124.04" width="39.52" height="45"/><rect class="cls-5" x="153.31" y="20.91" width="7.34" height="4.5"/><rect class="cls-5" x="140.15" y="20.91" width="7.34" height="4.5"/><rect class="cls-5" x="127.04" y="20.91" width="7.34" height="4.5"/><rect class="cls-4" x="163.57" width="39.52" height="45"/><rect class="cls-5" x="192.83" y="20.91" width="7.34" height="4.5"/><rect class="cls-5" x="179.68" y="20.91" width="7.34" height="4.5"/><rect class="cls-5" x="166.56" y="20.91" width="7.34" height="4.5"/><rect class="cls-4" x="203.09" width="39.52" height="45"/><rect class="cls-5" x="232.36" y="20.91" width="7.34" height="4.5"/><rect class="cls-5" x="219.2" y="20.91" width="7.34" height="4.5"/><rect class="cls-5" x="206.08" y="20.91" width="7.34" height="4.5"/><rect class="cls-4" x="242.61" width="39.52" height="45"/><rect class="cls-5" x="271.88" y="20.91" width="7.34" height="4.5"/><rect class="cls-5" x="258.72" y="20.91" width="7.34" height="4.5"/><rect class="cls-5" x="245.61" y="20.91" width="7.34" height="4.5"/><rect class="cls-4" x="282.14" width="39.52" height="45"/><rect class="cls-5" x="311.4" y="20.91" width="7.34" height="4.5"/><rect class="cls-5" x="298.25" y="20.91" width="7.34" height="4.5"/><rect class="cls-5" x="285.13" y="20.91" width="7.34" height="4.5"/><rect class="cls-4" x="321.66" width="39.52" height="45"/><rect class="cls-5" x="350.93" y="20.91" width="7.34" height="4.5"/><rect class="cls-5" x="337.77" y="20.91" width="7.34" height="4.5"/><rect class="cls-5" x="324.66" y="20.91" width="7.34" height="4.5"/><rect class="cls-4" x="361.18" width="39.52" height="45"/><rect class="cls-5" x="390.45" y="20.91" width="7.34" height="4.5"/><rect class="cls-5" x="377.29" y="20.91" width="7.34" height="4.5"/><rect class="cls-5" x="364.18" y="20.91" width="7.34" height="4.5"/><rect class="cls-4" x="400.71" width="39.52" height="45"/><rect class="cls-5" x="429.98" y="20.91" width="7.34" height="4.5"/><rect class="cls-5" x="416.82" y="20.91" width="7.34" height="4.5"/><rect class="cls-5" x="403.7" y="20.91" width="7.34" height="4.5"/><rect class="cls-4" x="440.23" width="39.52" height="45"/><rect class="cls-5" x="469.5" y="20.91" width="7.34" height="4.5"/><rect class="cls-5" x="456.34" y="20.91" width="7.34" height="4.5"/><rect class="cls-5" x="443.23" y="20.91" width="7.34" height="4.5"/><rect class="cls-4" x="479.76" width="39.52" height="45"/><rect class="cls-5" x="509.02" y="20.91" width="7.34" height="4.5"/><rect class="cls-5" x="495.86" y="20.91" width="7.34" height="4.5"/><rect class="cls-5" x="482.75" y="20.91" width="7.34" height="4.5"/><rect class="cls-4" x="519.28" y="45" width="45" height="39.2"/><rect class="cls-5" x="538.87" y="74.03" width="4.5" height="7.28"/><rect class="cls-5" x="538.87" y="60.97" width="4.5" height="7.28"/><rect class="cls-5" x="538.87" y="47.97" width="4.5" height="7.28"/><rect class="cls-4" x="519.28" y="84.2" width="45" height="39.2"/><rect class="cls-5" x="538.87" y="113.23" width="4.5" height="7.28"/><rect class="cls-5" x="538.87" y="100.18" width="4.5" height="7.28"/><rect class="cls-5" x="538.87" y="87.17" width="4.5" height="7.28"/><rect class="cls-4" x="519.28" y="123.4" width="45" height="39.2"/><rect class="cls-5" x="538.87" y="152.43" width="4.5" height="7.28"/><rect class="cls-5" x="538.87" y="139.38" width="4.5" height="7.28"/><rect class="cls-5" x="538.87" y="126.37" width="4.5" height="7.28"/><rect class="cls-4" x="479.76" y="162.61" width="39.52" height="45"/><rect class="cls-5" x="482.68" y="182.2" width="7.34" height="4.5"/><rect class="cls-5" x="495.83" y="182.2" width="7.34" height="4.5"/><rect class="cls-5" x="508.95" y="182.2" width="7.34" height="4.5"/><rect class="cls-4" x="440.23" y="162.61" width="39.52" height="45"/><rect class="cls-5" x="443.15" y="182.2" width="7.34" height="4.5"/><rect class="cls-5" x="456.31" y="182.2" width="7.34" height="4.5"/><rect class="cls-5" x="469.42" y="182.2" width="7.34" height="4.5"/><rect class="cls-4" x="400.71" y="162.61" width="39.52" height="45"/><rect class="cls-5" x="403.63" y="182.2" width="7.34" height="4.5"/><rect class="cls-5" x="416.79" y="182.2" width="7.34" height="4.5"/><rect class="cls-5" x="429.9" y="182.2" width="7.34" height="4.5"/><rect class="cls-4" x="361.18" y="162.61" width="39.52" height="45"/><rect class="cls-5" x="364.1" y="182.2" width="7.34" height="4.5"/><rect class="cls-5" x="377.26" y="182.2" width="7.34" height="4.5"/><rect class="cls-5" x="390.38" y="182.2" width="7.34" height="4.5"/><rect class="cls-4" x="321.66" y="162.61" width="39.52" height="45"/><rect class="cls-5" x="324.58" y="182.2" width="7.34" height="4.5"/><rect class="cls-5" x="337.74" y="182.2" width="7.34" height="4.5"/><rect class="cls-5" x="350.85" y="182.2" width="7.34" height="4.5"/><rect class="cls-4" x="282.14" y="162.61" width="39.52" height="45"/><rect class="cls-5" x="285.06" y="182.2" width="7.34" height="4.5"/><rect class="cls-5" x="298.22" y="182.2" width="7.34" height="4.5"/><rect class="cls-5" x="311.33" y="182.2" width="7.34" height="4.5"/><rect class="cls-4" x="242.61" y="162.61" width="39.52" height="45"/><rect class="cls-5" x="245.53" y="182.2" width="7.34" height="4.5"/><rect class="cls-5" x="258.69" y="182.2" width="7.34" height="4.5"/><rect class="cls-5" x="271.81" y="182.2" width="7.34" height="4.5"/><rect class="cls-4" x="203.09" y="162.61" width="39.52" height="45"/><rect class="cls-5" x="206.01" y="182.2" width="7.34" height="4.5"/><rect class="cls-5" x="219.17" y="182.2" width="7.34" height="4.5"/><rect class="cls-5" x="232.28" y="182.2" width="7.34" height="4.5"/><rect class="cls-4" x="163.57" y="162.61" width="39.52" height="45"/><rect class="cls-5" x="166.49" y="182.2" width="7.34" height="4.5"/><rect class="cls-5" x="179.64" y="182.2" width="7.34" height="4.5"/><rect class="cls-5" x="192.76" y="182.2" width="7.34" height="4.5"/><rect class="cls-4" x="124.04" y="162.61" width="39.52" height="45"/><rect class="cls-5" x="126.96" y="182.2" width="7.34" height="4.5"/><rect class="cls-5" x="140.12" y="182.2" width="7.34" height="4.5"/><rect class="cls-5" x="153.24" y="182.2" width="7.34" height="4.5"/><rect class="cls-4" x="84.52" y="162.61" width="39.52" height="45"/><rect class="cls-5" x="87.44" y="182.2" width="7.34" height="4.5"/><rect class="cls-5" x="100.6" y="182.2" width="7.34" height="4.5"/><rect class="cls-5" x="113.71" y="182.2" width="7.34" height="4.5"/><rect class="cls-4" x="45" y="162.61" width="39.52" height="45"/><rect class="cls-5" x="47.92" y="182.2" width="7.34" height="4.5"/><rect class="cls-5" x="61.07" y="182.2" width="7.34" height="4.5"/><rect class="cls-5" x="74.19" y="182.2" width="7.34" height="4.5"/><rect class="cls-5" x="20.59" y="34.4" width="4.52" height="7.5"/><polygon class="cls-6" points="20.59 20.9 20.59 28.4 25.11 28.4 25.11 25.4 28.09 25.4 28.09 20.9 20.59 20.9"/><rect class="cls-5" x="34.09" y="20.9" width="7.5" height="4.5"/><rect class="cls-5" x="522.37" y="20.59" width="7.5" height="4.52"/><polygon class="cls-6" points="543.37 20.59 535.87 20.59 535.87 25.11 538.87 25.11 538.87 28.09 543.37 28.09 543.37 20.59"/><rect class="cls-5" x="538.87" y="34.09" width="4.5" height="7.5"/><rect class="cls-5" x="539.17" y="165.7" width="4.52" height="7.5"/><polygon class="cls-6" points="543.69 186.7 543.69 179.2 539.17 179.2 539.17 182.2 536.19 182.2 536.19 186.7 543.69 186.7"/><rect class="cls-5" x="522.69" y="182.2" width="7.5" height="4.5"/><rect class="cls-5" x="34.4" y="182.5" width="7.5" height="4.52"/><polygon class="cls-6" points="20.9 187.01 28.4 187.01 28.4 182.5 25.4 182.5 25.4 179.51 20.9 179.51 20.9 187.01"/><rect class="cls-5" x="20.9" y="166.01" width="4.5" height="7.5"/></svg>