<svg id="Layer_1" data-name="Layer 1" xmlns="http://www.w3.org/2000/svg" viewBox="0 0 128.61 451.48"><defs><style>.cls-1{font-size:15px;font-family:Athelas;}.cls-2{white-space:pre;}</style></defs><title>mousepadtext1</title><text class="cls-1" transform="translate(0 12.38)">wh<tspan x="19.38" y="0">a</tspan><tspan x="26.4" y="0">t will people </tspan><tspan x="0" y="18">think of the </tspan><tspan x="0" y="36">mousepad, upon its </tspan><tspan x="0" y="54">dis</tspan><tspan x="18.09" y="54">c</tspan><tspan x="24.46" y="54">o</tspan><tspan x="31.92" y="54">v</tspan><tspan x="38.61" y="54">ery in 200 </tspan><tspan x="0" y="72">y</tspan><tspan x="6.92" y="72">ea</tspan><tspan x="20.98" y="72">r</tspan><tspan x="26.44" y="72">s?</tspan><tspan x="0" y="108">rubber squa</tspan><tspan x="75.51" y="108">r</tspan><tspan x="80.82" y="108">es of </tspan><tspan x="0" y="126">form and function, </tspan><tspan x="0" y="144">e</tspan><tspan x="6.98" y="144">rg</tspan><tspan x="19.32" y="144">onomics </tspan><tspan x="0" y="162">r</tspan><tspan x="5.31" y="162">ende</tspan><tspan x="35.92" y="162">r</tspan><tspan x="41.23" y="162">ed obsole</tspan><tspan x="100.21" y="162">t</tspan><tspan x="104.67" y="162">e. </tspan><tspan x="0" y="198">wh</tspan><tspan x="19.38" y="198">a</tspan><tspan x="26.4" y="198">t will be made </tspan><tspan x="0" y="216">of the cus</tspan><tspan x="59.53" y="216">t</tspan><tspan x="63.99" y="216">om </tspan><tspan x="0" y="234">pri</tspan><tspan x="17.98" y="234">nt</tspan><tspan x="30.76" y="234">ed mousepads? </tspan><tspan x="0" y="252">the family pho</tspan><tspan x="90.75" y="252">t</tspan><tspan x="95.2" y="252">os </tspan><tspan x="0" y="270">embellished upon </tspan><tspan x="0" y="288">s</tspan><tspan x="5.58" y="288">y</tspan><tspan x="12.87" y="288">n</tspan><tspan x="21.19" y="288">thetic m</tspan><tspan x="72.18" y="288">a</tspan><tspan x="79.2" y="288">t</tspan><tspan class="cls-2" x="83.65" y="288">erial?  </tspan></text></svg>