<svg id="Layer_2" data-name="Layer 2" xmlns="http://www.w3.org/2000/svg" viewBox="0 0 128.74 451.48"><defs><style>.cls-1{font-size:15px;font-family:Athelas;}</style></defs><title>mousepadtext2</title><text class="cls-1" transform="translate(0 12.38)">and h<tspan x="35.46" y="0">o</tspan><tspan x="42.91" y="0">w </tspan><tspan x="56.89" y="0">t</tspan><tspan x="61.35" y="0">o </tspan><tspan x="72.25" y="0">e</tspan><tspan x="78.93" y="0">xplain </tspan><tspan x="0" y="18">those shrun</tspan><tspan x="73.74" y="18">k</tspan><tspan x="81.03" y="18">en </tspan><tspan x="0" y="36">pe</tspan><tspan x="15.18" y="36">r</tspan><tspan x="20.64" y="36">sian ru</tspan><tspan x="63.33" y="36">g</tspan><tspan x="70.44" y="36">s? </tspan><tspan x="0" y="72">a mini</tspan><tspan x="39.39" y="72">a</tspan><tspan x="46.41" y="72">tu</tspan><tspan x="59.4" y="72">r</tspan><tspan x="64.71" y="72">e magic </tspan><tspan x="0" y="90">carpe</tspan><tspan x="34.48" y="90">t</tspan><tspan x="38.75" y="90">, adorned </tspan><tspan x="0" y="108">with </tspan><tspan x="31.23" y="108">t</tspan><tspan x="35.68" y="108">e</tspan><tspan x="42.36" y="108">x</tspan><tspan x="49.74" y="108">tu</tspan><tspan x="62.73" y="108">r</tspan><tspan x="68.04" y="108">e and </tspan><tspan x="0" y="126">frin</tspan><tspan x="22.89" y="126">g</tspan><tspan x="29.85" y="126">e.</tspan><tspan x="0" y="162">perhaps th</tspan><tspan x="66.82" y="162">e</tspan><tspan x="73.51" y="162">y will be </tspan><tspan x="0" y="180">sti</tspan><tspan x="14.5" y="180">t</tspan><tspan x="18.96" y="180">ched and quil</tspan><tspan x="103.97" y="180">t</tspan><tspan x="108.43" y="180">ed,</tspan><tspan x="0" y="216">forming a cultu</tspan><tspan x="95.89" y="216">r</tspan><tspan x="101.28" y="216">al </tspan><tspan x="0" y="234">herita</tspan><tspan x="37" y="234">g</tspan><tspan x="43.96" y="234">e of </tspan><tspan x="0" y="252">c</tspan><tspan x="6.38" y="252">omp</tspan><tspan x="34.81" y="252">u</tspan><tspan x="43.13" y="252">t</tspan><tspan x="47.73" y="252">a</tspan><tspan x="54.75" y="252">tion pas</tspan><tspan x="103.93" y="252">t</tspan><tspan x="108.19" y="252">.</tspan></text></svg>