<svg id="Layer_1" data-name="Layer 1" xmlns="http://www.w3.org/2000/svg" viewBox="0 0 894.25 406.72"><defs><style>.cls-1,.cls-2{isolation:isolate;}.cls-2{font-size:20px;font-family:Menlo;}.cls-3,.cls-5,.cls-6{fill:none;}.cls-4{fill:#231f20;}.cls-5,.cls-6{stroke:#0716d3;stroke-miterlimit:10;}.cls-5{stroke-width:3px;}.cls-6{stroke-width:4px;}</style></defs><title>newtext</title><g class="cls-1"><text class="cls-2" transform="translate(43.93 76.3)">What do we call the accidents </text><text class="cls-2" transform="translate(43.93 101.3)">and mistakes that happen on, </text><text class="cls-2" transform="translate(43.93 126.3)">over, because of and through our </text><text class="cls-2" transform="translate(43.93 151.3)">digital devices ...</text></g><rect class="cls-3" x="6.82" y="107.25" width="45" height="48"/><rect class="cls-4" x="27.72" y="110.79" width="4.5" height="8.91"/><rect class="cls-4" x="27.72" y="126.77" width="4.5" height="8.91"/><rect class="cls-4" x="27.72" y="142.7" width="4.5" height="8.91"/><rect class="cls-3" x="6.82" y="59.25" width="45" height="48"/><rect class="cls-4" x="27.72" y="62.8" width="4.5" height="8.91"/><rect class="cls-4" x="27.72" y="78.78" width="4.5" height="8.91"/><rect class="cls-4" x="27.72" y="94.7" width="4.5" height="8.91"/><rect class="cls-3" x="51.81" y="14.25" width="40.93" height="45"/><rect class="cls-4" x="82.12" y="35.16" width="7.6" height="4.5"/><rect class="cls-4" x="68.49" y="35.16" width="7.6" height="4.5"/><rect class="cls-4" x="54.91" y="35.16" width="7.6" height="4.5"/><rect class="cls-3" x="92.74" y="14.25" width="40.93" height="45"/><rect class="cls-4" x="123.06" y="35.16" width="7.6" height="4.5"/><rect class="cls-4" x="109.43" y="35.16" width="7.6" height="4.5"/><rect class="cls-4" x="95.85" y="35.16" width="7.6" height="4.5"/><rect class="cls-3" x="133.68" y="14.25" width="40.93" height="45"/><rect class="cls-4" x="163.99" y="35.16" width="7.6" height="4.5"/><rect class="cls-4" x="150.36" y="35.16" width="7.6" height="4.5"/><rect class="cls-4" x="136.78" y="35.16" width="7.6" height="4.5"/><rect class="cls-3" x="174.61" y="14.25" width="40.93" height="45"/><rect class="cls-4" x="204.92" y="35.16" width="7.6" height="4.5"/><rect class="cls-4" x="191.3" y="35.16" width="7.6" height="4.5"/><rect class="cls-4" x="177.71" y="35.16" width="7.6" height="4.5"/><rect class="cls-3" x="215.54" y="14.25" width="40.93" height="45"/><rect class="cls-4" x="245.86" y="35.16" width="7.6" height="4.5"/><rect class="cls-4" x="232.23" y="35.16" width="7.6" height="4.5"/><rect class="cls-4" x="218.65" y="35.16" width="7.6" height="4.5"/><rect class="cls-3" x="256.48" y="14.25" width="40.93" height="45"/><rect class="cls-4" x="286.79" y="35.16" width="7.6" height="4.5"/><rect class="cls-4" x="273.16" y="35.16" width="7.6" height="4.5"/><rect class="cls-4" x="259.58" y="35.16" width="7.6" height="4.5"/><rect class="cls-3" x="297.41" y="14.25" width="40.93" height="45"/><rect class="cls-4" x="327.72" y="35.16" width="7.6" height="4.5"/><rect class="cls-4" x="314.1" y="35.16" width="7.6" height="4.5"/><rect class="cls-4" x="300.51" y="35.16" width="7.6" height="4.5"/><rect class="cls-3" x="338.35" y="14.25" width="40.93" height="45"/><rect class="cls-4" x="368.66" y="35.16" width="7.6" height="4.5"/><rect class="cls-4" x="355.03" y="35.16" width="7.6" height="4.5"/><rect class="cls-4" x="341.45" y="35.16" width="7.6" height="4.5"/><rect class="cls-3" x="379.28" y="14.25" width="40.93" height="45"/><rect class="cls-4" x="409.59" y="35.16" width="7.6" height="4.5"/><rect class="cls-4" x="395.96" y="35.16" width="7.6" height="4.5"/><rect class="cls-4" x="382.38" y="35.16" width="7.6" height="4.5"/><rect class="cls-3" x="420.21" y="59.25" width="45" height="48"/><rect class="cls-4" x="439.8" y="94.79" width="4.5" height="8.91"/><rect class="cls-4" x="439.8" y="78.81" width="4.5" height="8.91"/><rect class="cls-4" x="439.8" y="62.89" width="4.5" height="8.91"/><rect class="cls-3" x="420.21" y="107.25" width="45" height="48"/><rect class="cls-4" x="439.8" y="142.79" width="4.5" height="8.91"/><rect class="cls-4" x="439.8" y="126.81" width="4.5" height="8.91"/><rect class="cls-4" x="439.8" y="110.88" width="4.5" height="8.91"/><rect class="cls-3" x="379.28" y="155.24" width="40.93" height="45"/><rect class="cls-4" x="382.3" y="174.83" width="7.6" height="4.5"/><rect class="cls-4" x="395.93" y="174.83" width="7.6" height="4.5"/><rect class="cls-4" x="409.51" y="174.83" width="7.6" height="4.5"/><rect class="cls-3" x="338.35" y="155.24" width="40.93" height="45"/><rect class="cls-4" x="341.37" y="174.83" width="7.6" height="4.5"/><rect class="cls-4" x="355" y="174.83" width="7.6" height="4.5"/><rect class="cls-4" x="368.58" y="174.83" width="7.6" height="4.5"/><rect class="cls-3" x="297.41" y="155.24" width="40.93" height="45"/><rect class="cls-4" x="300.44" y="174.83" width="7.6" height="4.5"/><rect class="cls-4" x="314.06" y="174.83" width="7.6" height="4.5"/><rect class="cls-4" x="327.65" y="174.83" width="7.6" height="4.5"/><rect class="cls-3" x="256.48" y="155.24" width="40.93" height="45"/><rect class="cls-4" x="259.5" y="174.83" width="7.6" height="4.5"/><rect class="cls-4" x="273.13" y="174.83" width="7.6" height="4.5"/><rect class="cls-4" x="286.71" y="174.83" width="7.6" height="4.5"/><rect class="cls-3" x="215.54" y="155.24" width="40.93" height="45"/><rect class="cls-4" x="218.57" y="174.83" width="7.6" height="4.5"/><rect class="cls-4" x="232.2" y="174.83" width="7.6" height="4.5"/><rect class="cls-4" x="245.78" y="174.83" width="7.6" height="4.5"/><rect class="cls-3" x="174.61" y="155.24" width="40.93" height="45"/><rect class="cls-4" x="177.64" y="174.83" width="7.6" height="4.5"/><rect class="cls-4" x="191.26" y="174.83" width="7.6" height="4.5"/><rect class="cls-4" x="204.85" y="174.83" width="7.6" height="4.5"/><rect class="cls-3" x="133.68" y="155.24" width="40.93" height="45"/><rect class="cls-4" x="136.7" y="174.83" width="7.6" height="4.5"/><rect class="cls-4" x="150.33" y="174.83" width="7.6" height="4.5"/><rect class="cls-4" x="163.91" y="174.83" width="7.6" height="4.5"/><rect class="cls-3" x="92.74" y="155.24" width="40.93" height="45"/><rect class="cls-4" x="95.77" y="174.83" width="7.6" height="4.5"/><rect class="cls-4" x="109.4" y="174.83" width="7.6" height="4.5"/><rect class="cls-4" x="122.98" y="174.83" width="7.6" height="4.5"/><rect class="cls-3" x="51.81" y="155.24" width="40.93" height="45"/><rect class="cls-4" x="54.84" y="174.83" width="7.6" height="4.5"/><rect class="cls-4" x="68.46" y="174.83" width="7.6" height="4.5"/><rect class="cls-4" x="82.04" y="174.83" width="7.6" height="4.5"/><rect class="cls-4" x="27.4" y="48.66" width="4.52" height="7.5"/><polygon class="cls-4" points="27.4 35.16 27.4 42.66 31.92 42.66 31.92 39.66 34.9 39.66 34.9 35.16 27.4 35.16"/><rect class="cls-4" x="40.9" y="35.16" width="7.5" height="4.5"/><rect class="cls-4" x="423.3" y="34.84" width="7.5" height="4.52"/><polygon class="cls-4" points="444.31 34.84 436.81 34.84 436.81 39.36 439.81 39.36 439.81 42.34 444.31 42.34 444.31 34.84"/><rect class="cls-4" x="439.81" y="48.34" width="4.5" height="7.5"/><rect class="cls-4" x="440.1" y="158.33" width="4.52" height="7.5"/><polygon class="cls-4" points="444.62 179.34 444.62 171.84 440.1 171.84 440.1 174.84 437.12 174.84 437.12 179.34 444.62 179.34"/><rect class="cls-4" x="423.62" y="174.84" width="7.5" height="4.5"/><rect class="cls-4" x="41.22" y="175.13" width="7.5" height="4.52"/><polygon class="cls-4" points="27.72 179.65 35.22 179.65 35.22 175.13 32.22 175.13 32.22 172.15 27.72 172.15 27.72 179.65"/><rect class="cls-4" x="27.72" y="158.65" width="4.5" height="7.5"/><rect class="cls-5" x="1.5" y="1.5" width="472.33" height="211"/><rect class="cls-6" x="380.75" y="253.82" width="504.4" height="150.9"/><text class="cls-2" transform="translate(408.2 307.34)">... The mistakes that happen in our</text><text class="cls-2" transform="translate(408.2 332.34)">interactions with digital devices</text><text class="cls-2" transform="translate(408.2 357.34)">(both public &amp; personal)</text><rect class="cls-3" x="370.05" y="326.82" width="45" height="33.3"/><rect class="cls-4" x="390.95" y="329.22" width="4.5" height="6.2"/><rect class="cls-4" x="390.95" y="340.32" width="4.5" height="6.2"/><rect class="cls-4" x="390.95" y="351.32" width="4.5" height="6.2"/><rect class="cls-3" x="345.05" y="268.52" width="45" height="33.3"/><rect class="cls-4" x="390.95" y="295.92" width="4.5" height="6.2"/><rect class="cls-4" x="390.95" y="307.02" width="4.5" height="6.2"/><rect class="cls-4" x="390.95" y="318.12" width="4.5" height="6.2"/><rect class="cls-3" x="415.05" y="248.52" width="39.5" height="45"/><rect class="cls-4" x="444.25" y="269.42" width="7.3" height="4.5"/><rect class="cls-4" x="431.15" y="269.42" width="7.3" height="4.5"/><rect class="cls-4" x="418.05" y="269.42" width="7.3" height="4.5"/><rect class="cls-3" x="454.55" y="248.52" width="39.5" height="45"/><rect class="cls-4" x="483.75" y="269.42" width="7.3" height="4.5"/><rect class="cls-4" x="470.65" y="269.42" width="7.3" height="4.5"/><rect class="cls-4" x="457.55" y="269.42" width="7.3" height="4.5"/><rect class="cls-3" x="493.95" y="248.52" width="39.5" height="45"/><rect class="cls-4" x="523.25" y="269.42" width="7.3" height="4.5"/><rect class="cls-4" x="510.05" y="269.42" width="7.3" height="4.5"/><rect class="cls-4" x="496.95" y="269.42" width="7.3" height="4.5"/><rect class="cls-3" x="533.45" y="248.52" width="39.5" height="45"/><rect class="cls-4" x="562.75" y="269.42" width="7.3" height="4.5"/><rect class="cls-4" x="549.55" y="269.42" width="7.3" height="4.5"/><rect class="cls-4" x="536.45" y="269.42" width="7.3" height="4.5"/><rect class="cls-3" x="572.95" y="248.52" width="39.5" height="45"/><rect class="cls-4" x="602.15" y="269.42" width="7.3" height="4.5"/><rect class="cls-4" x="589.05" y="269.42" width="7.3" height="4.5"/><rect class="cls-4" x="575.95" y="269.42" width="7.3" height="4.5"/><rect class="cls-3" x="612.45" y="248.52" width="39.5" height="45"/><rect class="cls-4" x="641.65" y="269.42" width="7.3" height="4.5"/><rect class="cls-4" x="628.55" y="269.42" width="7.3" height="4.5"/><rect class="cls-4" x="615.45" y="269.42" width="7.3" height="4.5"/><rect class="cls-3" x="651.95" y="248.52" width="39.5" height="45"/><rect class="cls-4" x="681.15" y="269.42" width="7.3" height="4.5"/><rect class="cls-4" x="668.05" y="269.42" width="7.3" height="4.5"/><rect class="cls-4" x="654.95" y="269.42" width="7.3" height="4.5"/><rect class="cls-3" x="691.35" y="248.52" width="39.5" height="45"/><rect class="cls-4" x="720.65" y="269.42" width="7.3" height="4.5"/><rect class="cls-4" x="707.45" y="269.42" width="7.3" height="4.5"/><rect class="cls-4" x="694.35" y="269.42" width="7.3" height="4.5"/><rect class="cls-3" x="730.85" y="248.52" width="39.5" height="45"/><rect class="cls-4" x="760.05" y="269.42" width="7.3" height="4.5"/><rect class="cls-4" x="746.95" y="269.42" width="7.3" height="4.5"/><rect class="cls-4" x="733.85" y="269.42" width="7.3" height="4.5"/><rect class="cls-4" x="799.55" y="269.42" width="7.3" height="4.5"/><rect class="cls-4" x="786.45" y="269.42" width="7.3" height="4.5"/><rect class="cls-4" x="773.35" y="269.42" width="7.3" height="4.5"/><rect class="cls-3" x="809.85" y="248.52" width="39.5" height="45"/><rect class="cls-4" x="839.05" y="269.42" width="7.3" height="4.5"/><rect class="cls-4" x="825.95" y="269.42" width="7.3" height="4.5"/><rect class="cls-4" x="812.85" y="269.42" width="7.3" height="4.5"/><rect class="cls-3" x="849.25" y="293.52" width="45" height="33.3"/><rect class="cls-4" x="868.85" y="318.12" width="4.5" height="6.2"/><rect class="cls-4" x="868.85" y="307.12" width="4.5" height="6.2"/><rect class="cls-4" x="868.85" y="296.02" width="4.5" height="6.2"/><rect class="cls-3" x="849.25" y="326.82" width="45" height="33.3"/><rect class="cls-4" x="868.85" y="351.42" width="4.5" height="6.2"/><rect class="cls-4" x="868.85" y="340.32" width="4.5" height="6.2"/><rect class="cls-4" x="868.85" y="329.32" width="4.5" height="6.2"/><rect class="cls-3" x="809.85" y="360.02" width="39.5" height="45"/><rect class="cls-4" x="812.75" y="379.62" width="7.3" height="4.5"/><rect class="cls-4" x="825.85" y="379.62" width="7.3" height="4.5"/><rect class="cls-4" x="838.95" y="379.62" width="7.3" height="4.5"/><rect class="cls-3" x="770.35" y="360.02" width="39.5" height="45"/><rect class="cls-4" x="773.25" y="379.62" width="7.3" height="4.5"/><rect class="cls-4" x="786.45" y="379.62" width="7.3" height="4.5"/><rect class="cls-4" x="799.55" y="379.62" width="7.3" height="4.5"/><rect class="cls-3" x="730.85" y="360.02" width="39.5" height="45"/><rect class="cls-4" x="733.75" y="379.62" width="7.3" height="4.5"/><rect class="cls-4" x="746.95" y="379.62" width="7.3" height="4.5"/><rect class="cls-4" x="760.05" y="379.62" width="7.3" height="4.5"/><rect class="cls-3" x="691.35" y="360.02" width="39.5" height="45"/><rect class="cls-4" x="694.25" y="379.62" width="7.3" height="4.5"/><rect class="cls-4" x="707.45" y="379.62" width="7.3" height="4.5"/><rect class="cls-4" x="720.55" y="379.62" width="7.3" height="4.5"/><rect class="cls-3" x="651.95" y="360.02" width="39.5" height="45"/><rect class="cls-4" x="654.85" y="379.62" width="7.3" height="4.5"/><rect class="cls-4" x="667.95" y="379.62" width="7.3" height="4.5"/><rect class="cls-4" x="681.05" y="379.62" width="7.3" height="4.5"/><rect class="cls-3" x="612.45" y="360.02" width="39.5" height="45"/><rect class="cls-4" x="615.35" y="379.62" width="7.3" height="4.5"/><rect class="cls-4" x="628.45" y="379.62" width="7.3" height="4.5"/><rect class="cls-4" x="641.55" y="379.62" width="7.3" height="4.5"/><rect class="cls-3" x="572.95" y="360.02" width="39.5" height="45"/><rect class="cls-4" x="575.85" y="379.62" width="7.3" height="4.5"/><rect class="cls-4" x="589.05" y="379.62" width="7.3" height="4.5"/><rect class="cls-4" x="602.15" y="379.62" width="7.3" height="4.5"/><rect class="cls-3" x="533.45" y="360.02" width="39.5" height="45"/><rect class="cls-4" x="536.35" y="379.62" width="7.3" height="4.5"/><rect class="cls-4" x="549.55" y="379.62" width="7.3" height="4.5"/><rect class="cls-4" x="562.65" y="379.62" width="7.3" height="4.5"/><rect class="cls-3" x="493.95" y="360.02" width="39.5" height="45"/><rect class="cls-4" x="496.95" y="379.62" width="7.3" height="4.5"/><rect class="cls-4" x="510.05" y="379.62" width="7.3" height="4.5"/><rect class="cls-4" x="523.15" y="379.62" width="7.3" height="4.5"/><rect class="cls-3" x="454.55" y="360.02" width="39.5" height="45"/><rect class="cls-4" x="457.45" y="379.62" width="7.3" height="4.5"/><rect class="cls-4" x="470.55" y="379.62" width="7.3" height="4.5"/><rect class="cls-4" x="483.65" y="379.62" width="7.3" height="4.5"/><rect class="cls-3" x="415.05" y="360.02" width="39.5" height="45"/><rect class="cls-4" x="417.95" y="379.62" width="7.3" height="4.5"/><rect class="cls-4" x="431.05" y="379.62" width="7.3" height="4.5"/><rect class="cls-4" x="444.25" y="379.62" width="7.3" height="4.5"/><rect class="cls-4" x="390.65" y="282.92" width="4.5" height="7.5"/><polygon class="cls-4" points="390.65 269.42 390.65 276.92 395.15 276.92 395.15 273.92 398.15 273.92 398.15 269.42 390.65 269.42"/><rect class="cls-4" x="404.15" y="269.42" width="7.5" height="4.5"/><rect class="cls-4" x="852.35" y="269.12" width="7.5" height="4.5"/><polygon class="cls-4" points="873.35 269.12 865.85 269.12 865.85 273.62 868.85 273.62 868.85 276.62 873.35 276.62 873.35 269.12"/><rect class="cls-4" x="868.85" y="282.62" width="4.5" height="7.5"/><rect class="cls-4" x="869.15" y="363.12" width="4.5" height="7.5"/><polygon class="cls-4" points="873.65 384.12 873.65 376.62 869.15 376.62 869.15 379.62 866.15 379.62 866.15 384.12 873.65 384.12"/><rect class="cls-4" x="852.75" y="379.62" width="7.5" height="4.5"/><rect class="cls-4" x="404.45" y="379.92" width="7.5" height="4.5"/><polygon class="cls-4" points="390.95 384.42 398.45 384.42 398.45 379.92 395.45 379.92 395.45 376.92 390.95 376.92 390.95 384.42"/><rect class="cls-4" x="390.95" y="363.42" width="4.5" height="7.5"/></svg>