<?xml version="1.0" encoding="utf-8"?>
<!-- Generator: Adobe Illustrator 19.2.0, SVG Export Plug-In . SVG Version: 6.00 Build 0)  -->
<svg version="1.0" id="Layer_1" xmlns="http://www.w3.org/2000/svg" xmlns:xlink="http://www.w3.org/1999/xlink" x="0px" y="0px"
	 viewBox="0 0 640 480" enable-background="new 0 0 640 480" xml:space="preserve">
<g>
	<g>
		<g>
			<g>
				<g>
					<g>
						<rect x="90.2" y="240.3" fill="none" width="45" height="48"/>
					</g>
					<rect x="111.1" y="243.8" fill-rule="evenodd" clip-rule="evenodd" fill="#231F20" width="4.5" height="8.9"/>
					<rect x="111.1" y="259.8" fill-rule="evenodd" clip-rule="evenodd" fill="#231F20" width="4.5" height="8.9"/>
					<rect x="111.1" y="275.8" fill-rule="evenodd" clip-rule="evenodd" fill="#231F20" width="4.5" height="8.9"/>
				</g>
			</g>
			<g>
				<g>
					<g>
						<rect x="90.2" y="192.3" fill="none" width="45" height="48"/>
					</g>
					<rect x="111.1" y="195.9" fill-rule="evenodd" clip-rule="evenodd" fill="#231F20" width="4.5" height="8.9"/>
					<rect x="111.1" y="211.8" fill-rule="evenodd" clip-rule="evenodd" fill="#231F20" width="4.5" height="8.9"/>
					<rect x="111.1" y="227.8" fill-rule="evenodd" clip-rule="evenodd" fill="#231F20" width="4.5" height="8.9"/>
				</g>
			</g>
			<g>
				<g>
					<g>
						<rect x="135.2" y="147.3" fill="none" width="40.9" height="45"/>
					</g>
					<rect x="165.5" y="168.2" fill-rule="evenodd" clip-rule="evenodd" fill="#231F20" width="7.6" height="4.5"/>
					<rect x="151.9" y="168.2" fill-rule="evenodd" clip-rule="evenodd" fill="#231F20" width="7.6" height="4.5"/>
					<rect x="138.3" y="168.2" fill-rule="evenodd" clip-rule="evenodd" fill="#231F20" width="7.6" height="4.5"/>
				</g>
			</g>
			<g>
				<g>
					<g>
						<rect x="176.1" y="147.3" fill="none" width="40.9" height="45"/>
					</g>
					<rect x="206.4" y="168.2" fill-rule="evenodd" clip-rule="evenodd" fill="#231F20" width="7.6" height="4.5"/>
					<rect x="192.8" y="168.2" fill-rule="evenodd" clip-rule="evenodd" fill="#231F20" width="7.6" height="4.5"/>
					<rect x="179.2" y="168.2" fill-rule="evenodd" clip-rule="evenodd" fill="#231F20" width="7.6" height="4.5"/>
				</g>
			</g>
			<g>
				<g>
					<g>
						<rect x="217.1" y="147.3" fill="none" width="40.9" height="45"/>
					</g>
					<rect x="247.4" y="168.2" fill-rule="evenodd" clip-rule="evenodd" fill="#231F20" width="7.6" height="4.5"/>
					<rect x="233.7" y="168.2" fill-rule="evenodd" clip-rule="evenodd" fill="#231F20" width="7.6" height="4.5"/>
					<rect x="220.2" y="168.2" fill-rule="evenodd" clip-rule="evenodd" fill="#231F20" width="7.6" height="4.5"/>
				</g>
			</g>
			<g>
				<g>
					<g>
						<rect x="258" y="147.3" fill="none" width="40.9" height="45"/>
					</g>
					<rect x="288.3" y="168.2" fill-rule="evenodd" clip-rule="evenodd" fill="#231F20" width="7.6" height="4.5"/>
					<rect x="274.7" y="168.2" fill-rule="evenodd" clip-rule="evenodd" fill="#231F20" width="7.6" height="4.5"/>
					<rect x="261.1" y="168.2" fill-rule="evenodd" clip-rule="evenodd" fill="#231F20" width="7.6" height="4.5"/>
				</g>
			</g>
			<g>
				<g>
					<g>
						<rect x="298.9" y="147.3" fill="none" width="40.9" height="45"/>
					</g>
					<rect x="329.2" y="168.2" fill-rule="evenodd" clip-rule="evenodd" fill="#231F20" width="7.6" height="4.5"/>
					<rect x="315.6" y="168.2" fill-rule="evenodd" clip-rule="evenodd" fill="#231F20" width="7.6" height="4.5"/>
					<rect x="302" y="168.2" fill-rule="evenodd" clip-rule="evenodd" fill="#231F20" width="7.6" height="4.5"/>
				</g>
			</g>
			<g>
				<g>
					<g>
						<rect x="339.9" y="147.3" fill="none" width="40.9" height="45"/>
					</g>
					<rect x="370.2" y="168.2" fill-rule="evenodd" clip-rule="evenodd" fill="#231F20" width="7.6" height="4.5"/>
					<rect x="356.5" y="168.2" fill-rule="evenodd" clip-rule="evenodd" fill="#231F20" width="7.6" height="4.5"/>
					<rect x="343" y="168.2" fill-rule="evenodd" clip-rule="evenodd" fill="#231F20" width="7.6" height="4.5"/>
				</g>
			</g>
			<g>
				<g>
					<g>
						<rect x="380.8" y="147.3" fill="none" width="40.9" height="45"/>
					</g>
					<rect x="411.1" y="168.2" fill-rule="evenodd" clip-rule="evenodd" fill="#231F20" width="7.6" height="4.5"/>
					<rect x="397.5" y="168.2" fill-rule="evenodd" clip-rule="evenodd" fill="#231F20" width="7.6" height="4.5"/>
					<rect x="383.9" y="168.2" fill-rule="evenodd" clip-rule="evenodd" fill="#231F20" width="7.6" height="4.5"/>
				</g>
			</g>
			<g>
				<g>
					<g>
						<rect x="421.7" y="147.3" fill="none" width="40.9" height="45"/>
					</g>
					<rect x="452" y="168.2" fill-rule="evenodd" clip-rule="evenodd" fill="#231F20" width="7.6" height="4.5"/>
					<rect x="438.4" y="168.2" fill-rule="evenodd" clip-rule="evenodd" fill="#231F20" width="7.6" height="4.5"/>
					<rect x="424.8" y="168.2" fill-rule="evenodd" clip-rule="evenodd" fill="#231F20" width="7.6" height="4.5"/>
				</g>
			</g>
			<g>
				<g>
					<g>
						<rect x="462.7" y="147.3" fill="none" width="40.9" height="45"/>
					</g>
					<rect x="493" y="168.2" fill-rule="evenodd" clip-rule="evenodd" fill="#231F20" width="7.6" height="4.5"/>
					<rect x="479.3" y="168.2" fill-rule="evenodd" clip-rule="evenodd" fill="#231F20" width="7.6" height="4.5"/>
					<rect x="465.8" y="168.2" fill-rule="evenodd" clip-rule="evenodd" fill="#231F20" width="7.6" height="4.5"/>
				</g>
			</g>
			<g>
				<g>
					<g>
						<rect x="503.6" y="192.3" fill="none" width="45" height="48"/>
					</g>
					<rect x="523.2" y="227.8" fill-rule="evenodd" clip-rule="evenodd" fill="#231F20" width="4.5" height="8.9"/>
					<rect x="523.2" y="211.9" fill-rule="evenodd" clip-rule="evenodd" fill="#231F20" width="4.5" height="8.9"/>
					<rect x="523.2" y="195.9" fill-rule="evenodd" clip-rule="evenodd" fill="#231F20" width="4.5" height="8.9"/>
				</g>
			</g>
			<g>
				<g>
					<g>
						<rect x="503.6" y="240.3" fill="none" width="45" height="48"/>
					</g>
					<rect x="523.2" y="275.8" fill-rule="evenodd" clip-rule="evenodd" fill="#231F20" width="4.5" height="8.9"/>
					<rect x="523.2" y="259.9" fill-rule="evenodd" clip-rule="evenodd" fill="#231F20" width="4.5" height="8.9"/>
					<rect x="523.2" y="243.9" fill-rule="evenodd" clip-rule="evenodd" fill="#231F20" width="4.5" height="8.9"/>
				</g>
			</g>
			<g>
				<g>
					<g>
						<rect x="462.7" y="288.3" fill="none" width="40.9" height="45"/>
					</g>
					<rect x="465.7" y="307.9" fill-rule="evenodd" clip-rule="evenodd" fill="#231F20" width="7.6" height="4.5"/>
					<rect x="479.3" y="307.9" fill-rule="evenodd" clip-rule="evenodd" fill="#231F20" width="7.6" height="4.5"/>
					<rect x="492.9" y="307.9" fill-rule="evenodd" clip-rule="evenodd" fill="#231F20" width="7.6" height="4.5"/>
				</g>
			</g>
			<g>
				<g>
					<g>
						<rect x="421.7" y="288.3" fill="none" width="40.9" height="45"/>
					</g>
					<rect x="424.7" y="307.9" fill-rule="evenodd" clip-rule="evenodd" fill="#231F20" width="7.6" height="4.5"/>
					<rect x="438.4" y="307.9" fill-rule="evenodd" clip-rule="evenodd" fill="#231F20" width="7.6" height="4.5"/>
					<rect x="452" y="307.9" fill-rule="evenodd" clip-rule="evenodd" fill="#231F20" width="7.6" height="4.5"/>
				</g>
			</g>
			<g>
				<g>
					<g>
						<rect x="380.8" y="288.3" fill="none" width="40.9" height="45"/>
					</g>
					<rect x="383.8" y="307.9" fill-rule="evenodd" clip-rule="evenodd" fill="#231F20" width="7.6" height="4.5"/>
					<rect x="397.4" y="307.9" fill-rule="evenodd" clip-rule="evenodd" fill="#231F20" width="7.6" height="4.5"/>
					<rect x="411" y="307.9" fill-rule="evenodd" clip-rule="evenodd" fill="#231F20" width="7.6" height="4.5"/>
				</g>
			</g>
			<g>
				<g>
					<g>
						<rect x="339.9" y="288.3" fill="none" width="40.9" height="45"/>
					</g>
					<rect x="342.9" y="307.9" fill-rule="evenodd" clip-rule="evenodd" fill="#231F20" width="7.6" height="4.5"/>
					<rect x="356.5" y="307.9" fill-rule="evenodd" clip-rule="evenodd" fill="#231F20" width="7.6" height="4.5"/>
					<rect x="370.1" y="307.9" fill-rule="evenodd" clip-rule="evenodd" fill="#231F20" width="7.6" height="4.5"/>
				</g>
			</g>
			<g>
				<g>
					<g>
						<rect x="298.9" y="288.3" fill="none" width="40.9" height="45"/>
					</g>
					<rect x="301.9" y="307.9" fill-rule="evenodd" clip-rule="evenodd" fill="#231F20" width="7.6" height="4.5"/>
					<rect x="315.6" y="307.9" fill-rule="evenodd" clip-rule="evenodd" fill="#231F20" width="7.6" height="4.5"/>
					<rect x="329.2" y="307.9" fill-rule="evenodd" clip-rule="evenodd" fill="#231F20" width="7.6" height="4.5"/>
				</g>
			</g>
			<g>
				<g>
					<g>
						<rect x="258" y="288.3" fill="none" width="40.9" height="45"/>
					</g>
					<rect x="261" y="307.9" fill-rule="evenodd" clip-rule="evenodd" fill="#231F20" width="7.6" height="4.5"/>
					<rect x="274.6" y="307.9" fill-rule="evenodd" clip-rule="evenodd" fill="#231F20" width="7.6" height="4.5"/>
					<rect x="288.2" y="307.9" fill-rule="evenodd" clip-rule="evenodd" fill="#231F20" width="7.6" height="4.5"/>
				</g>
			</g>
			<g>
				<g>
					<g>
						<rect x="217.1" y="288.3" fill="none" width="40.9" height="45"/>
					</g>
					<rect x="220.1" y="307.9" fill-rule="evenodd" clip-rule="evenodd" fill="#231F20" width="7.6" height="4.5"/>
					<rect x="233.7" y="307.9" fill-rule="evenodd" clip-rule="evenodd" fill="#231F20" width="7.6" height="4.5"/>
					<rect x="247.3" y="307.9" fill-rule="evenodd" clip-rule="evenodd" fill="#231F20" width="7.6" height="4.5"/>
				</g>
			</g>
			<g>
				<g>
					<g>
						<rect x="176.1" y="288.3" fill="none" width="40.9" height="45"/>
					</g>
					<rect x="179.1" y="307.9" fill-rule="evenodd" clip-rule="evenodd" fill="#231F20" width="7.6" height="4.5"/>
					<rect x="192.8" y="307.9" fill-rule="evenodd" clip-rule="evenodd" fill="#231F20" width="7.6" height="4.5"/>
					<rect x="206.4" y="307.9" fill-rule="evenodd" clip-rule="evenodd" fill="#231F20" width="7.6" height="4.5"/>
				</g>
			</g>
			<g>
				<g>
					<g>
						<rect x="135.2" y="288.3" fill="none" width="40.9" height="45"/>
					</g>
					<rect x="138.2" y="307.9" fill-rule="evenodd" clip-rule="evenodd" fill="#231F20" width="7.6" height="4.5"/>
					<rect x="151.8" y="307.9" fill-rule="evenodd" clip-rule="evenodd" fill="#231F20" width="7.6" height="4.5"/>
					<rect x="165.4" y="307.9" fill-rule="evenodd" clip-rule="evenodd" fill="#231F20" width="7.6" height="4.5"/>
				</g>
			</g>
			<g>
				<rect x="110.8" y="181.7" fill-rule="evenodd" clip-rule="evenodd" fill="#231F20" width="4.5" height="7.5"/>
				<polygon fill-rule="evenodd" clip-rule="evenodd" fill="#231F20" points="110.8,168.2 110.8,175.7 115.3,175.7 115.3,172.7 
					118.3,172.7 118.3,168.2 				"/>
				<rect x="124.3" y="168.2" fill-rule="evenodd" clip-rule="evenodd" fill="#231F20" width="7.5" height="4.5"/>
			</g>
			<g>
				<rect x="506.7" y="167.9" fill-rule="evenodd" clip-rule="evenodd" fill="#231F20" width="7.5" height="4.5"/>
				<polygon fill-rule="evenodd" clip-rule="evenodd" fill="#231F20" points="527.7,167.9 520.2,167.9 520.2,172.4 523.2,172.4 
					523.2,175.4 527.7,175.4 				"/>
				<rect x="523.2" y="181.4" fill-rule="evenodd" clip-rule="evenodd" fill="#231F20" width="4.5" height="7.5"/>
			</g>
			<g>
				<rect x="523.5" y="291.4" fill-rule="evenodd" clip-rule="evenodd" fill="#231F20" width="4.5" height="7.5"/>
				<polygon fill-rule="evenodd" clip-rule="evenodd" fill="#231F20" points="528,312.4 528,304.9 523.5,304.9 523.5,307.9 
					520.5,307.9 520.5,312.4 				"/>
				<rect x="507" y="307.9" fill-rule="evenodd" clip-rule="evenodd" fill="#231F20" width="7.5" height="4.5"/>
			</g>
			<g>
				<rect x="124.6" y="308.2" fill-rule="evenodd" clip-rule="evenodd" fill="#231F20" width="7.5" height="4.5"/>
				<polygon fill-rule="evenodd" clip-rule="evenodd" fill="#231F20" points="111.1,312.7 118.6,312.7 118.6,308.2 115.6,308.2 
					115.6,305.2 111.1,305.2 				"/>
				<rect x="111.1" y="291.7" fill-rule="evenodd" clip-rule="evenodd" fill="#231F20" width="4.5" height="7.5"/>
			</g>
		</g>
	</g>
</g>
</svg>
