<svg id="Layer_1" data-name="Layer 1" xmlns="http://www.w3.org/2000/svg" viewBox="0 0 421.39 217"><title>text6</title><rect x="42.17" y="41.95" width="168.53" height="23.99" style="fill:#fcee21;opacity:0.86"/><text transform="translate(42.17 59.86)" style="font-size:20px;font-family:Menlo;font-weight:700">Fiber oopstics are glitches <tspan x="0" y="25">and errors caught in the </tspan><tspan x="0" y="50">wild; feedback, screens and </tspan><tspan x="0" y="75">messages that are </tspan><tspan x="0" y="100">unanticipated and unintended.</tspan></text><rect y="123.4" width="45" height="39.2" style="fill:none"/><rect x="20.91" y="126.3" width="4.5" height="7.28" style="fill:#231f20"/><rect x="20.91" y="139.35" width="4.5" height="7.28" style="fill:#231f20"/><rect x="20.91" y="152.36" width="4.5" height="7.28" style="fill:#231f20"/><rect y="84.2" width="45" height="39.2" style="fill:none"/><rect x="20.91" y="87.1" width="4.5" height="7.28" style="fill:#231f20"/><rect x="20.91" y="100.15" width="4.5" height="7.28" style="fill:#231f20"/><rect x="20.91" y="113.16" width="4.5" height="7.28" style="fill:#231f20"/><rect y="45" width="45" height="39.2" style="fill:none"/><rect x="20.91" y="47.89" width="4.5" height="7.28" style="fill:#231f20"/><rect x="20.91" y="60.94" width="4.5" height="7.28" style="fill:#231f20"/><rect x="20.91" y="73.95" width="4.5" height="7.28" style="fill:#231f20"/><rect x="45" width="41.43" height="45" style="fill:none"/><rect x="75.67" y="20.91" width="7.69" height="4.5" style="fill:#231f20"/><rect x="61.88" y="20.91" width="7.69" height="4.5" style="fill:#231f20"/><rect x="48.13" y="20.91" width="7.69" height="4.5" style="fill:#231f20"/><rect x="86.42" width="41.43" height="45" style="fill:none"/><rect x="117.1" y="20.91" width="7.69" height="4.5" style="fill:#231f20"/><rect x="103.31" y="20.91" width="7.69" height="4.5" style="fill:#231f20"/><rect x="89.56" y="20.91" width="7.69" height="4.5" style="fill:#231f20"/><rect x="127.85" width="41.43" height="45" style="fill:none"/><rect x="158.52" y="20.91" width="7.69" height="4.5" style="fill:#231f20"/><rect x="144.73" y="20.91" width="7.69" height="4.5" style="fill:#231f20"/><rect x="130.98" y="20.91" width="7.69" height="4.5" style="fill:#231f20"/><rect x="169.27" width="41.43" height="45" style="fill:none"/><rect x="199.95" y="20.91" width="7.69" height="4.5" style="fill:#231f20"/><rect x="186.16" y="20.91" width="7.69" height="4.5" style="fill:#231f20"/><rect x="172.41" y="20.91" width="7.69" height="4.5" style="fill:#231f20"/><rect x="210.7" width="41.43" height="45" style="fill:none"/><rect x="241.37" y="20.91" width="7.69" height="4.5" style="fill:#231f20"/><rect x="227.58" y="20.91" width="7.69" height="4.5" style="fill:#231f20"/><rect x="213.83" y="20.91" width="7.69" height="4.5" style="fill:#231f20"/><rect x="252.12" width="41.43" height="45" style="fill:none"/><rect x="282.8" y="20.91" width="7.69" height="4.5" style="fill:#231f20"/><rect x="269.01" y="20.91" width="7.69" height="4.5" style="fill:#231f20"/><rect x="255.26" y="20.91" width="7.69" height="4.5" style="fill:#231f20"/><rect x="293.55" width="41.43" height="45" style="fill:none"/><rect x="324.22" y="20.91" width="7.69" height="4.5" style="fill:#231f20"/><rect x="310.43" y="20.91" width="7.69" height="4.5" style="fill:#231f20"/><rect x="296.68" y="20.91" width="7.69" height="4.5" style="fill:#231f20"/><rect x="334.97" width="41.43" height="45" style="fill:none"/><rect x="365.65" y="20.91" width="7.69" height="4.5" style="fill:#231f20"/><rect x="351.86" y="20.91" width="7.69" height="4.5" style="fill:#231f20"/><rect x="338.11" y="20.91" width="7.69" height="4.5" style="fill:#231f20"/><rect x="376.4" y="45" width="45" height="39.2" style="fill:none"/><rect x="395.99" y="74.03" width="4.5" height="7.28" style="fill:#231f20"/><rect x="395.99" y="60.97" width="4.5" height="7.28" style="fill:#231f20"/><rect x="395.99" y="47.97" width="4.5" height="7.28" style="fill:#231f20"/><rect x="376.4" y="84.2" width="45" height="39.2" style="fill:none"/><rect x="395.99" y="113.23" width="4.5" height="7.28" style="fill:#231f20"/><rect x="395.99" y="100.18" width="4.5" height="7.28" style="fill:#231f20"/><rect x="395.99" y="87.17" width="4.5" height="7.28" style="fill:#231f20"/><rect x="376.4" y="123.4" width="45" height="39.2" style="fill:none"/><rect x="395.99" y="152.43" width="4.5" height="7.28" style="fill:#231f20"/><rect x="395.99" y="139.38" width="4.5" height="7.28" style="fill:#231f20"/><rect x="395.99" y="126.37" width="4.5" height="7.28" style="fill:#231f20"/><rect x="334.97" y="162.61" width="41.43" height="45" style="fill:none"/><rect x="338.03" y="182.2" width="7.69" height="4.5" style="fill:#231f20"/><rect x="351.82" y="182.2" width="7.69" height="4.5" style="fill:#231f20"/><rect x="365.57" y="182.2" width="7.69" height="4.5" style="fill:#231f20"/><rect x="293.55" y="162.61" width="41.43" height="45" style="fill:none"/><rect x="296.61" y="182.2" width="7.69" height="4.5" style="fill:#231f20"/><rect x="310.4" y="182.2" width="7.69" height="4.5" style="fill:#231f20"/><rect x="324.14" y="182.2" width="7.69" height="4.5" style="fill:#231f20"/><rect x="252.12" y="162.61" width="41.43" height="45" style="fill:none"/><rect x="255.18" y="182.2" width="7.69" height="4.5" style="fill:#231f20"/><rect x="268.97" y="182.2" width="7.69" height="4.5" style="fill:#231f20"/><rect x="282.72" y="182.2" width="7.69" height="4.5" style="fill:#231f20"/><rect x="210.7" y="162.61" width="41.43" height="45" style="fill:none"/><rect x="213.76" y="182.2" width="7.69" height="4.5" style="fill:#231f20"/><rect x="227.55" y="182.2" width="7.69" height="4.5" style="fill:#231f20"/><rect x="241.29" y="182.2" width="7.69" height="4.5" style="fill:#231f20"/><rect x="169.27" y="162.61" width="41.43" height="45" style="fill:none"/><rect x="172.33" y="182.2" width="7.69" height="4.5" style="fill:#231f20"/><rect x="186.12" y="182.2" width="7.69" height="4.5" style="fill:#231f20"/><rect x="199.87" y="182.2" width="7.69" height="4.5" style="fill:#231f20"/><rect x="127.85" y="162.61" width="41.43" height="45" style="fill:none"/><rect x="130.91" y="182.2" width="7.69" height="4.5" style="fill:#231f20"/><rect x="144.7" y="182.2" width="7.69" height="4.5" style="fill:#231f20"/><rect x="158.44" y="182.2" width="7.69" height="4.5" style="fill:#231f20"/><rect x="86.42" y="162.61" width="41.43" height="45" style="fill:none"/><rect x="89.48" y="182.2" width="7.69" height="4.5" style="fill:#231f20"/><rect x="103.27" y="182.2" width="7.69" height="4.5" style="fill:#231f20"/><rect x="117.02" y="182.2" width="7.69" height="4.5" style="fill:#231f20"/><rect x="45" y="162.61" width="41.43" height="45" style="fill:none"/><rect x="48.06" y="182.2" width="7.69" height="4.5" style="fill:#231f20"/><rect x="61.85" y="182.2" width="7.69" height="4.5" style="fill:#231f20"/><rect x="75.59" y="182.2" width="7.69" height="4.5" style="fill:#231f20"/><rect x="20.59" y="34.4" width="4.52" height="7.5" style="fill:#231f20"/><polygon points="20.59 20.9 20.59 28.4 25.11 28.4 25.11 25.4 28.09 25.4 28.09 20.9 20.59 20.9" style="fill:#231f20;fill-rule:evenodd"/><rect x="34.09" y="20.9" width="7.5" height="4.5" style="fill:#231f20"/><rect x="379.49" y="20.59" width="7.5" height="4.52" style="fill:#231f20"/><polygon points="400.49 20.59 392.99 20.59 392.99 25.11 395.99 25.11 395.99 28.09 400.49 28.09 400.49 20.59" style="fill:#231f20;fill-rule:evenodd"/><rect x="395.99" y="34.09" width="4.5" height="7.5" style="fill:#231f20"/><rect x="396.29" y="165.7" width="4.52" height="7.5" style="fill:#231f20"/><polygon points="400.8 186.7 400.8 179.2 396.29 179.2 396.29 182.2 393.3 182.2 393.3 186.7 400.8 186.7" style="fill:#231f20;fill-rule:evenodd"/><rect x="379.8" y="182.2" width="7.5" height="4.5" style="fill:#231f20"/><rect x="34.4" y="182.5" width="7.5" height="4.52" style="fill:#231f20"/><polygon points="20.9 187.01 28.4 187.01 28.4 182.5 25.4 182.5 25.4 179.51 20.9 179.51 20.9 187.01" style="fill:#231f20;fill-rule:evenodd"/><rect x="20.9" y="166.01" width="4.5" height="7.5" style="fill:#231f20"/></svg>