<svg id="Layer_1" data-name="Layer 1" xmlns="http://www.w3.org/2000/svg" viewBox="0 0 496.02 119.09"><title>text6</title><rect x="34.38" y="32.37" width="157.3" height="17.9" style="fill:#fcee21;opacity:0.86"/><text transform="translate(37.64 46.22)" style="font-size:15.585384368896484px;font-family:Menlo"><tspan style="font-weight:700">“</tspan><tspan x="9.38" y="0">Fiber oopstics</tspan><tspan x="140.75" y="0" style="font-weight:700">” </tspan><tspan x="159.52" y="0">is a way to call out/capture </tspan><tspan x="0" y="19.48">the digital errors we encounter in all shapes </tspan><tspan x="0" y="38.96">and forms: </tspan></text><rect y="45" width="45" height="29.09" style="fill:none"/><rect x="20.91" y="47.15" width="4.5" height="5.4" style="fill:#231f20"/><rect x="20.91" y="56.83" width="4.5" height="5.4" style="fill:#231f20"/><rect x="20.91" y="66.48" width="4.5" height="5.4" style="fill:#231f20"/><rect x="45" width="40.6" height="45" style="fill:none"/><rect x="75.06" y="20.91" width="7.54" height="4.5" style="fill:#231f20"/><rect x="61.54" y="20.91" width="7.54" height="4.5" style="fill:#231f20"/><rect x="48.07" y="20.91" width="7.54" height="4.5" style="fill:#231f20"/><rect x="85.6" width="40.6" height="45" style="fill:none"/><rect x="115.66" y="20.91" width="7.54" height="4.5" style="fill:#231f20"/><rect x="102.15" y="20.91" width="7.54" height="4.5" style="fill:#231f20"/><rect x="88.67" y="20.91" width="7.54" height="4.5" style="fill:#231f20"/><rect x="126.2" width="40.6" height="45" style="fill:none"/><rect x="156.27" y="20.91" width="7.54" height="4.5" style="fill:#231f20"/><rect x="142.75" y="20.91" width="7.54" height="4.5" style="fill:#231f20"/><rect x="129.28" y="20.91" width="7.54" height="4.5" style="fill:#231f20"/><rect x="166.8" width="40.6" height="45" style="fill:none"/><rect x="196.87" y="20.91" width="7.54" height="4.5" style="fill:#231f20"/><rect x="183.35" y="20.91" width="7.54" height="4.5" style="fill:#231f20"/><rect x="169.88" y="20.91" width="7.54" height="4.5" style="fill:#231f20"/><rect x="207.41" width="40.6" height="45" style="fill:none"/><rect x="237.47" y="20.91" width="7.54" height="4.5" style="fill:#231f20"/><rect x="223.96" y="20.91" width="7.54" height="4.5" style="fill:#231f20"/><rect x="210.48" y="20.91" width="7.54" height="4.5" style="fill:#231f20"/><rect x="248.01" width="40.6" height="45" style="fill:none"/><rect x="278.08" y="20.91" width="7.54" height="4.5" style="fill:#231f20"/><rect x="264.56" y="20.91" width="7.54" height="4.5" style="fill:#231f20"/><rect x="251.09" y="20.91" width="7.54" height="4.5" style="fill:#231f20"/><rect x="288.61" width="40.6" height="45" style="fill:none"/><rect x="318.68" y="20.91" width="7.54" height="4.5" style="fill:#231f20"/><rect x="305.16" y="20.91" width="7.54" height="4.5" style="fill:#231f20"/><rect x="291.69" y="20.91" width="7.54" height="4.5" style="fill:#231f20"/><rect x="329.22" width="40.6" height="45" style="fill:none"/><rect x="359.28" y="20.91" width="7.54" height="4.5" style="fill:#231f20"/><rect x="345.77" y="20.91" width="7.54" height="4.5" style="fill:#231f20"/><rect x="332.29" y="20.91" width="7.54" height="4.5" style="fill:#231f20"/><rect x="369.82" width="40.6" height="45" style="fill:none"/><rect x="399.89" y="20.91" width="7.54" height="4.5" style="fill:#231f20"/><rect x="386.37" y="20.91" width="7.54" height="4.5" style="fill:#231f20"/><rect x="372.9" y="20.91" width="7.54" height="4.5" style="fill:#231f20"/><rect x="410.42" width="40.6" height="45" style="fill:none"/><rect x="440.49" y="20.91" width="7.54" height="4.5" style="fill:#231f20"/><rect x="426.97" y="20.91" width="7.54" height="4.5" style="fill:#231f20"/><rect x="413.5" y="20.91" width="7.54" height="4.5" style="fill:#231f20"/><rect x="451.02" y="45" width="45" height="29.09" style="fill:none"/><rect x="470.61" y="66.54" width="4.5" height="5.4" style="fill:#231f20"/><rect x="470.61" y="56.85" width="4.5" height="5.4" style="fill:#231f20"/><rect x="470.61" y="47.2" width="4.5" height="5.4" style="fill:#231f20"/><rect x="410.42" y="74.09" width="40.6" height="45" style="fill:none"/><rect x="413.42" y="93.68" width="7.54" height="4.5" style="fill:#231f20"/><rect x="426.94" y="93.68" width="7.54" height="4.5" style="fill:#231f20"/><rect x="440.41" y="93.68" width="7.54" height="4.5" style="fill:#231f20"/><rect x="369.82" y="74.09" width="40.6" height="45" style="fill:none"/><rect x="372.82" y="93.68" width="7.54" height="4.5" style="fill:#231f20"/><rect x="386.34" y="93.68" width="7.54" height="4.5" style="fill:#231f20"/><rect x="399.81" y="93.68" width="7.54" height="4.5" style="fill:#231f20"/><rect x="329.22" y="74.09" width="40.6" height="45" style="fill:none"/><rect x="332.22" y="93.68" width="7.54" height="4.5" style="fill:#231f20"/><rect x="345.73" y="93.68" width="7.54" height="4.5" style="fill:#231f20"/><rect x="359.21" y="93.68" width="7.54" height="4.5" style="fill:#231f20"/><rect x="288.61" y="74.09" width="40.6" height="45" style="fill:none"/><rect x="291.61" y="93.68" width="7.54" height="4.5" style="fill:#231f20"/><rect x="305.13" y="93.68" width="7.54" height="4.5" style="fill:#231f20"/><rect x="318.6" y="93.68" width="7.54" height="4.5" style="fill:#231f20"/><rect x="248.01" y="74.09" width="40.6" height="45" style="fill:none"/><rect x="251.01" y="93.68" width="7.54" height="4.5" style="fill:#231f20"/><rect x="264.53" y="93.68" width="7.54" height="4.5" style="fill:#231f20"/><rect x="278" y="93.68" width="7.54" height="4.5" style="fill:#231f20"/><rect x="207.41" y="74.09" width="40.6" height="45" style="fill:none"/><rect x="210.41" y="93.68" width="7.54" height="4.5" style="fill:#231f20"/><rect x="223.92" y="93.68" width="7.54" height="4.5" style="fill:#231f20"/><rect x="237.4" y="93.68" width="7.54" height="4.5" style="fill:#231f20"/><rect x="166.8" y="74.09" width="40.6" height="45" style="fill:none"/><rect x="169.8" y="93.68" width="7.54" height="4.5" style="fill:#231f20"/><rect x="183.32" y="93.68" width="7.54" height="4.5" style="fill:#231f20"/><rect x="196.79" y="93.68" width="7.54" height="4.5" style="fill:#231f20"/><rect x="126.2" y="74.09" width="40.6" height="45" style="fill:none"/><rect x="129.2" y="93.68" width="7.54" height="4.5" style="fill:#231f20"/><rect x="142.72" y="93.68" width="7.54" height="4.5" style="fill:#231f20"/><rect x="156.19" y="93.68" width="7.54" height="4.5" style="fill:#231f20"/><rect x="85.6" y="74.09" width="40.6" height="45" style="fill:none"/><rect x="88.6" y="93.68" width="7.54" height="4.5" style="fill:#231f20"/><rect x="102.12" y="93.68" width="7.54" height="4.5" style="fill:#231f20"/><rect x="115.59" y="93.68" width="7.54" height="4.5" style="fill:#231f20"/><rect x="45" y="74.09" width="40.6" height="45" style="fill:none"/><rect x="48" y="93.68" width="7.54" height="4.5" style="fill:#231f20"/><rect x="61.51" y="93.68" width="7.54" height="4.5" style="fill:#231f20"/><rect x="74.99" y="93.68" width="7.54" height="4.5" style="fill:#231f20"/><rect x="20.59" y="34.4" width="4.52" height="7.5" style="fill:#231f20"/><polygon points="20.59 20.9 20.59 28.4 25.11 28.4 25.11 25.4 28.09 25.4 28.09 20.9 20.59 20.9" style="fill:#231f20;fill-rule:evenodd"/><rect x="34.09" y="20.9" width="7.5" height="4.5" style="fill:#231f20"/><rect x="454.11" y="20.59" width="7.5" height="4.52" style="fill:#231f20"/><polygon points="475.12 20.59 467.62 20.59 467.62 25.11 470.62 25.11 470.62 28.09 475.12 28.09 475.12 20.59" style="fill:#231f20;fill-rule:evenodd"/><rect x="470.62" y="34.09" width="4.5" height="7.5" style="fill:#231f20"/><rect x="470.92" y="77.18" width="4.52" height="7.5" style="fill:#231f20"/><polygon points="475.43 98.18 475.43 90.68 470.92 90.68 470.92 93.68 467.93 93.68 467.93 98.18 475.43 98.18" style="fill:#231f20;fill-rule:evenodd"/><rect x="454.43" y="93.68" width="7.5" height="4.5" style="fill:#231f20"/><rect x="34.4" y="93.98" width="7.5" height="4.52" style="fill:#231f20"/><polygon points="20.9 98.5 28.4 98.5 28.4 93.98 25.4 93.98 25.4 91 20.9 91 20.9 98.5" style="fill:#231f20;fill-rule:evenodd"/><rect x="20.9" y="77.5" width="4.5" height="7.5" style="fill:#231f20"/><rect x="12.45" y="7.96" width="473" height="105.58" style="fill:none;stroke:#abc1fa;stroke-miterlimit:10;stroke-width:3px"/></svg>