<svg id="Layer_1" data-name="Layer 1" xmlns="http://www.w3.org/2000/svg" viewBox="0 0 250.64 109.15"><title>text7</title><path d="M184.82,227.67l2.39-.09c1.79,5.75,2.68,8.61,4.46,14.32l-2,.14-1.07-3.74c-2,.11-3.06.15-5.11,0.19l-1.05,3.82h-2C182.14,236.48,183,233.55,184.82,227.67Zm1.19,1.7-2.08,7.52c1.66,0,2.5-.07,4.16-0.16Z" transform="translate(-180.36 -158.35)" style="fill:#ab6868"/><path d="M202,234v6.78a9.4,9.4,0,0,1-2,.24v-6.78a3.58,3.58,0,0,0-.27-2.1,1.49,1.49,0,0,0-1.5-.5,2.25,2.25,0,0,0-1.75,1.1,4.55,4.55,0,0,0-.49,2.63v6.18c-1,.07-1,0.1-2,0.17V230.78c1-.06,1-0.1,2-0.17v1.64a2.2,2.2,0,0,1,1.17-1.55A4,4,0,0,1,199,230a2.3,2.3,0,0,1,2.31.79C201.91,231.45,202,232.52,202,234Z" transform="translate(-180.36 -158.35)" style="fill:#ab6868"/><path d="M222.13,225.85a3.54,3.54,0,0,1,3.48.63q1.21,1.17,1.21,4a8,8,0,0,1-1.2,4.58,5.59,5.59,0,0,1-3.49,2.32,3.48,3.48,0,0,1-3.48-.68,5.55,5.55,0,0,1-1.2-4,7.81,7.81,0,0,1,1.2-4.53A5.6,5.6,0,0,1,222.13,225.85Zm0,1.52a3.12,3.12,0,0,0-2.07,1.54,6.65,6.65,0,0,0-.7,3.31,5,5,0,0,0,.7,3,1.86,1.86,0,0,0,2.07.59,3.13,3.13,0,0,0,2.08-1.57,6.74,6.74,0,0,0,.7-3.32,4.88,4.88,0,0,0-.7-3A1.88,1.88,0,0,0,222.13,227.38Z" transform="translate(-180.36 -158.35)" style="fill:#ab6868"/><path d="M238,225.87v6.78c0,0.22-1,.33-1,0.54v-6.78a2.88,2.88,0,0,0-.71-2,1.71,1.71,0,0,0-1.72-.22,3.23,3.23,0,0,0-1.92,1.44,5.1,5.1,0,0,0-.66,2.75v6.18c-1,.2-1,0.3-2,0.49V224.11c1-.19,1-0.29,2-0.49v1.64a2.78,2.78,0,0,1,1.23-1.78,4.91,4.91,0,0,1,1.91-1,2,2,0,0,1,2.27.36C238,223.36,238,224.38,238,225.87Z" transform="translate(-180.36 -158.35)" style="fill:#ab6868"/><path d="M250,228.08a7,7,0,0,1-1,4.13,6.23,6.23,0,0,1-3.32,2.41,7.09,7.09,0,0,1-1.32.37c-0.54.08-1.38,0.12-1.38,0.12v-1.78a4.82,4.82,0,0,0,1.55.11,4.73,4.73,0,0,0,1.34-.25,4.31,4.31,0,0,0,2.28-1.49A4.92,4.92,0,0,0,249,229v-1.3c-1,.71-0.89,1.3-1.38,1.76a5.21,5.21,0,0,1-1.91,1,2.84,2.84,0,0,1-3.11-.55,5.21,5.21,0,0,1-1.17-3.74,8.49,8.49,0,0,1,1.13-4.47,5.5,5.5,0,0,1,3.05-2.52,4.1,4.1,0,0,1,2-.17c0.49,0.12.4,0.42,1.4,0.9V218.5c0-.24,1-0.36,1-0.61v10.2Zm-1.42-4.24a4.68,4.68,0,0,0-.66-2.85,1.6,1.6,0,0,0-1.92-.41,3.46,3.46,0,0,0-2,1.7,6.86,6.86,0,0,0-.69,3.29,4.51,4.51,0,0,0,.7,2.86,1.72,1.72,0,0,0,2,.4,3.24,3.24,0,0,0,1.9-1.69A7.22,7.22,0,0,0,248.58,223.84Z" transform="translate(-180.36 -158.35)" style="fill:#ab6868"/><path d="M258.26,214.8c1.52-.55,2.68-0.49,3.48.19s1.21,2,1.21,3.82a8.73,8.73,0,0,1-1.2,4.72,6.67,6.67,0,0,1-3.49,2.75c-1.52.55-2.68,0.48-3.48-.22s-1.2-2-1.2-3.85a8.61,8.61,0,0,1,1.2-4.69A6.66,6.66,0,0,1,258.26,214.8Zm0,1.52a3.72,3.72,0,0,0-2.07,1.81,7.21,7.21,0,0,0-.7,3.41,4.52,4.52,0,0,0,.7,2.9,1.73,1.73,0,0,0,2.07.32,3.74,3.74,0,0,0,2.08-1.83,7.27,7.27,0,0,0,.7-3.41,4.48,4.48,0,0,0-.7-2.89A1.75,1.75,0,0,0,258.26,216.32Z" transform="translate(-180.36 -158.35)" style="fill:#ab6868"/><path d="M267,211.68l5-1.79v9.5a18,18,0,0,1,4-1.42v1.4c-4,1.43-6,2.13-9,3.5v-1.4c1-.55,2-0.82,3-1.38V212c-1,.44-2,0.66-3,1.09v-1.4Zm3-5.34c1-.28,1-0.42,2-0.71v2.27c-1,.28-1,0.42-2,0.71v-2.27Z" transform="translate(-180.36 -158.35)" style="fill:#ab6868"/><path d="M287,208.08v6.78c-1,.3-1,0.45-2,0.75v-6.78a2.65,2.65,0,0,0-.63-2,1.57,1.57,0,0,0-1.68,0,4,4,0,0,0-2,1.69,5.58,5.58,0,0,0-.72,2.84v6.18c-1,.29-1,0.44-2,0.73V207.35c1-.29,1-0.44,2-0.73v1.64a3.33,3.33,0,0,1,1.31-2,5.91,5.91,0,0,1,1.95-1.28,2.63,2.63,0,0,1,2.71.07A4,4,0,0,1,287,208.08Z" transform="translate(-180.36 -158.35)" style="fill:#ab6868"/><path d="M299,209.13a7.63,7.63,0,0,1-1.39,4.22,7.73,7.73,0,0,1-3.53,2.71,10.15,10.15,0,0,1-1.5.52c-0.54.14-1.57,0.23-1.57,0.28v-1.78a9.65,9.65,0,0,0,1.63-.07,5.42,5.42,0,0,0,1.38-.39,4.7,4.7,0,0,0,2.22-1.69,5.23,5.23,0,0,0,.77-2.79v-1.3c-1,.73-0.81,1.35-1.3,1.86a5.71,5.71,0,0,1-1.87,1.21,2.72,2.72,0,0,1-3.09-.25,4.78,4.78,0,0,1-1.16-3.62,9.13,9.13,0,0,1,1.13-4.59,6.29,6.29,0,0,1,3.05-2.82,3.86,3.86,0,0,1,1.91-.33c0.49,0.07.32,0.34,1.32,0.8V199.7c0-.3,1-0.46,2-0.76v10.2ZM296.74,205a4.4,4.4,0,0,0-.66-2.79,1.53,1.53,0,0,0-1.92-.24,3.94,3.94,0,0,0-2,1.9,7.28,7.28,0,0,0-.69,3.36,4.2,4.2,0,0,0,.7,2.79,1.66,1.66,0,0,0,2,.21,3.69,3.69,0,0,0,1.9-1.87A7.59,7.59,0,0,0,296.74,205Z" transform="translate(-180.36 -158.35)" style="fill:#ab6868"/><path d="M323,199a6.56,6.56,0,0,0-1.59,1.25,9,9,0,0,1-1.62.87c-1.69.71-3,.76-4,0.15s-1.44-1.82-1.44-3.61a8.44,8.44,0,0,1,1.42-4.82,8.71,8.71,0,0,1,4-3.2,7.06,7.06,0,0,1,1.64-.44,5.59,5.59,0,0,1,1.61,0v1.88a6.08,6.08,0,0,0-1.53-.32,4.79,4.79,0,0,0-1.67.4,5.48,5.48,0,0,0-2.62,2.19,6.57,6.57,0,0,0-.92,3.51,3.33,3.33,0,0,0,.91,2.73,2.49,2.49,0,0,0,2.59,0,7.56,7.56,0,0,0,1.77-1,6.14,6.14,0,0,1,1.47-1.47V199Z" transform="translate(-180.36 -158.35)" style="fill:#ab6868"/><path d="M330.5,185.18q2.28-.93,3.48.06t1.21,3.78a8.91,8.91,0,0,1-1.2,4.76,7.11,7.11,0,0,1-3.49,2.89q-2.28.93-3.48,0t-1.2-3.78a9,9,0,0,1,1.2-4.76A7.08,7.08,0,0,1,330.5,185.18Zm0,1.52a4,4,0,0,0-2.07,1.91,7.44,7.44,0,0,0-.7,3.44,4.35,4.35,0,0,0,.7,2.86,1.7,1.7,0,0,0,2.07.22,4,4,0,0,0,2.08-1.92,7.42,7.42,0,0,0,.7-3.43,4.37,4.37,0,0,0-.7-2.87A1.71,1.71,0,0,0,330.5,186.71Z" transform="translate(-180.36 -158.35)" style="fill:#ab6868"/><path d="M344,187.23a2.53,2.53,0,0,0,.22,1.65c0.3,0.3.42,0.33,1,.11,0.84-.32,1.78-0.48,1.78-0.8v1.51c-1,.34-1.16.52-2.07,0.87a2.07,2.07,0,0,1-2.27-.07c-0.59-.46-0.66-1.32-0.66-2.58V178c-1,.45-2,0.68-3,1.13v-1.41l5-1.83v11.3Z" transform="translate(-180.36 -158.35)" style="fill:#ab6868"/><path d="M356,182.74a2.56,2.56,0,0,0,.24,1.67c0.3,0.3.41,0.35,1,.15,0.84-.3,1.77-0.44,1.77-0.73v1.51c0,0.32-1.14.48-2.05,0.8a2.1,2.1,0,0,1-2.28-.14c-0.59-.47-0.67-1.34-0.67-2.61V173.5c-1,.42-2,0.63-3,1.06v-1.41c2-.69,3-1,5-1.7v11.3Z" transform="translate(-180.36 -158.35)" style="fill:#ab6868"/><path d="M372,175v0.88a62,62,0,0,0-8,2.5v0.06c0,1.51.11,2.48,0.74,2.93a2.76,2.76,0,0,0,2.57.12,8.19,8.19,0,0,0,1.74-.85c0.63-.38.95-0.87,1.95-1.46V181c-1,.49-1.32.91-2,1.25a11.07,11.07,0,0,1-1.83.8c-1.7.55-3,.48-4-0.22s-1.43-1.94-1.43-3.73a8,8,0,0,1,1.41-4.65,7.11,7.11,0,0,1,3.75-2.8,3.68,3.68,0,0,1,3.52.37C371.29,172.68,371,173.68,372,175Zm-2.25,0a2.47,2.47,0,0,0-.83-1.7,2,2,0,0,0-2-.17,4.23,4.23,0,0,0-2.14,1.56,4.31,4.31,0,0,0-.92,2.24C366.2,176.17,367.38,175.78,369.75,175Z" transform="translate(-180.36 -158.35)" style="fill:#ab6868"/><path d="M383,177.53c0,0.41-1,.75-1.48,1a7.4,7.4,0,0,1-1.56.64,4.36,4.36,0,0,1-4-.4,4.52,4.52,0,0,1-1.43-3.8,7.61,7.61,0,0,1,1.43-4.64,7.12,7.12,0,0,1,4-2.65,5.68,5.68,0,0,1,1.54-.22,3.31,3.31,0,0,1,1.51.23v1.88c0-.3-0.95-0.48-1.42-0.54a4.18,4.18,0,0,0-1.62.16,4.43,4.43,0,0,0-2.6,1.82,6,6,0,0,0-.91,3.39,3.74,3.74,0,0,0,.91,2.86,2.61,2.61,0,0,0,2.59.37,5.84,5.84,0,0,0,1.67-.75c0.49-.33,1.37-0.75,1.37-1.26v1.87Z" transform="translate(-180.36 -158.35)" style="fill:#ab6868"/><path d="M391,162.15v3.11a21.76,21.76,0,0,1,4-.9v1.4a21.76,21.76,0,0,0-4,.9v5.94a2.11,2.11,0,0,0,.3,1.58,2,2,0,0,0,1.64.12c0.81-.18,1.06-0.27,2.06-0.44v1.44c-1,.19-1.43.28-2.31,0.47a3.63,3.63,0,0,1-2.85-.16A3.13,3.13,0,0,1,389,173v-5.94c-1,.28-2,0.42-3,0.71v-1.4c1-.29,2-0.44,3-0.71v-3.11C390,162.4,390,162.31,391,162.15Z" transform="translate(-180.36 -158.35)" style="fill:#ab6868"/><path d="M400,163.39a35.18,35.18,0,0,0,4-.8v9.5c2-.23,3-0.34,4-0.54V173c-4,.51-5,0.81-9,1.48V173a28.71,28.71,0,0,1,4-.64v-8.11a16.12,16.12,0,0,0-3,.5v-1.4Zm3-4.75c0-.12,1-0.18,1-0.3v2.27c0,0.12-1,.18-1,0.3v-2.27Z" transform="translate(-180.36 -158.35)" style="fill:#ab6868"/><path d="M414.79,160.91a3.82,3.82,0,0,1,3.48,1.15,6.19,6.19,0,0,1,1.21,4.17,7,7,0,0,1-1.2,4.37,4.78,4.78,0,0,1-3.49,1.79,3.88,3.88,0,0,1-3.48-1.08,6,6,0,0,1-1.2-4.12,7.29,7.29,0,0,1,1.2-4.42A4.71,4.71,0,0,1,414.79,160.91Zm0,1.52a2.62,2.62,0,0,0-2.07,1.29A6.21,6.21,0,0,0,412,167a5.34,5.34,0,0,0,.7,3.07,2.09,2.09,0,0,0,2.07.84,2.63,2.63,0,0,0,2.08-1.27,6.11,6.11,0,0,0,.7-3.21,5.43,5.43,0,0,0-.7-3.09A2.09,2.09,0,0,0,414.79,162.44Z" transform="translate(-180.36 -158.35)" style="fill:#ab6868"/><path d="M431,164.48v6.78h-2v-6.78a3.71,3.71,0,0,0-.38-2.16,1.71,1.71,0,0,0-1.55-.66,1.87,1.87,0,0,0-1.66,1,4.41,4.41,0,0,0-.4,2.59v6.18c-1,0-2,0-2,.09V160.55s1-.06,2-0.09v1.64a1.89,1.89,0,0,1,1.06-1.47,3.33,3.33,0,0,1,1.82-.54,2.66,2.66,0,0,1,2.4,1.06A5.55,5.55,0,0,1,431,164.48Z" transform="translate(-180.36 -158.35)" style="fill:#ab6868"/><path d="M186,256a4.11,4.11,0,0,1,3.48,1.31,6.28,6.28,0,0,1,1.21,4.19,6.94,6.94,0,0,1-1.2,4.35,4.39,4.39,0,0,1-3.49,1.64,4,4,0,0,1-3.48-1.38,6.55,6.55,0,0,1-1.2-4.26,6.67,6.67,0,0,1,1.2-4.28A4.42,4.42,0,0,1,186,256Zm0,1.52a2.43,2.43,0,0,0-2.07,1.13,5.85,5.85,0,0,0-.7,3.17,5.68,5.68,0,0,0,.7,3.13,2.22,2.22,0,0,0,2.07,1,2.43,2.43,0,0,0,2.08-1.16,6,6,0,0,0,.7-3.19,5.57,5.57,0,0,0-.7-3.12A2.24,2.24,0,0,0,186,257.53Z" transform="translate(-180.36 -158.35)" style="fill:#ab6868"/><path d="M202,250.57v1.49a8.08,8.08,0,0,1-1.83.27,1.34,1.34,0,0,0-1.07.56,2.5,2.5,0,0,0-.1,1.45v1c1-.17,2-0.27,3-0.47v1.4c-1,.21-2,0.3-3,0.47v9.54c-1,.08-1,0.12-2,0.2v-9.54c-1,.12-2,0.18-3,0.28v-1.4c1-.1,2-0.16,3-0.28v-0.76a4,4,0,0,1,.75-2.73,3.3,3.3,0,0,1,2.33-1.15A8.22,8.22,0,0,0,202,250.57Z" transform="translate(-180.36 -158.35)" style="fill:#ab6868"/><path d="M226,245.79v1.49c0,0.21-1,.31-1.79.51a1.64,1.64,0,0,0-1.09.72A2.67,2.67,0,0,0,223,250v1c1-.36,2-0.55,3-0.93v1.4c-1,.38-2,0.57-3,0.93v9.54c-1,.17-1,0.26-2,0.42v-9.54c-1,.27-2,0.4-3,0.65V252c1-.25,2-0.38,3-0.65v-0.76a4.45,4.45,0,0,1,.8-2.84,3.8,3.8,0,0,1,2.31-1.47C225,246.11,226,246,226,245.79Z" transform="translate(-180.36 -158.35)" style="fill:#ab6868"/><path d="M231,248.82c2-.51,3-0.77,5-1.31V257c1-.42,2-0.63,3-1.07v1.4a74,74,0,0,1-9,2.58v-1.4a21.08,21.08,0,0,0,4-1v-8.11c-1,.32-2,0.48-3,0.79v-1.4Zm3-5c1-.21,1-0.31,2-0.52v2.27c-1,.21-1,0.31-2,0.52v-2.27Z" transform="translate(-180.36 -158.35)" style="fill:#ab6868"/><path d="M244,246.4a2.6,2.6,0,0,1,1.13-1.61,4.8,4.8,0,0,1,1.72-1,2.8,2.8,0,0,1,3.09.47,5.24,5.24,0,0,1,1.13,3.8,9,9,0,0,1-1.14,4.63,5.61,5.61,0,0,1-3.12,2.59,2.93,2.93,0,0,1-1.67.14,1.3,1.3,0,0,1-1.14-.85v1.38c-1,.23-1,0.35-2,0.57v-15.2c1-.23,1-0.34,2-0.57v5.65Zm5.16,2.34a4.85,4.85,0,0,0-.66-2.93,1.63,1.63,0,0,0-2-.41,3.37,3.37,0,0,0-2,1.72,7.26,7.26,0,0,0-.67,3.37,4.83,4.83,0,0,0,.67,2.93,1.64,1.64,0,0,0,2,.43,3.33,3.33,0,0,0,2-1.72A7.39,7.39,0,0,0,249.16,248.74Z" transform="translate(-180.36 -158.35)" style="fill:#ab6868"/><path d="M263,242.81v0.88a60.81,60.81,0,0,1-8,2.85v0.06a3.41,3.41,0,0,0,1.05,2.91,3,3,0,0,0,2.73,0,10,10,0,0,0,2-.93c0.63-.41,1.21-0.94,2.21-1.58v1.79c-1,.54-1.5,1-2.14,1.37a11.88,11.88,0,0,1-1.92.89c-1.7.62-3.07,0.59-4-.09s-1.46-1.92-1.46-3.71a8.09,8.09,0,0,1,1.4-4.68,7.56,7.56,0,0,1,3.74-2.91c1.39-.51,2.4-0.45,3.2.2A3.53,3.53,0,0,1,263,242.81Zm-1.62.14a2.32,2.32,0,0,0-.83-1.65,2,2,0,0,0-2-.08,4.49,4.49,0,0,0-2.14,1.63,4.43,4.43,0,0,0-.92,2.26C257.83,244.27,259,243.84,261.38,243Z" transform="translate(-180.36 -158.35)" style="fill:#ab6868"/><path d="M276,235.68a6.82,6.82,0,0,0-1.39-.19,4.86,4.86,0,0,0-3.85,2.38,6.18,6.18,0,0,0-.76,3.39v5.44c-1,.28-1,0.42-2,0.7V236.47c1-.28,1-0.42,2-0.7v2.14a3.57,3.57,0,0,1,1.19-2.32,5.75,5.75,0,0,1,2.12-1.49,6,6,0,0,1,1.41-.33,4.78,4.78,0,0,1,1.28.08v1.84Z" transform="translate(-180.36 -158.35)" style="fill:#ab6868"/><path d="M294.38,225.39q2.28-1,3.48,0t1.21,3.76a9,9,0,0,1-1.2,4.78,7.24,7.24,0,0,1-3.49,2.94q-2.28,1-3.48,0t-1.2-3.77a9,9,0,0,1,1.2-4.77A7.22,7.22,0,0,1,294.38,225.39Zm0,1.52a4,4,0,0,0-2.07,1.94,7.48,7.48,0,0,0-.7,3.45,4.32,4.32,0,0,0,.7,2.85,1.69,1.69,0,0,0,2.07.2,4.05,4.05,0,0,0,2.08-1.95,7.5,7.5,0,0,0,.7-3.45,4.31,4.31,0,0,0-.7-2.86A1.71,1.71,0,0,0,294.38,226.91Z" transform="translate(-180.36 -158.35)" style="fill:#ab6868"/><path d="M306.42,220.28q2.28-1,3.48,0t1.21,3.76a9.05,9.05,0,0,1-1.2,4.78,7.28,7.28,0,0,1-3.49,3q-2.28,1-3.48,0t-1.2-3.76a9.06,9.06,0,0,1,1.2-4.78A7.25,7.25,0,0,1,306.42,220.28Zm0,1.52a4.06,4.06,0,0,0-2.07,1.94,7.5,7.5,0,0,0-.7,3.45,4.31,4.31,0,0,0,.7,2.85,1.69,1.69,0,0,0,2.07.19,4.07,4.07,0,0,0,2.08-2,7.51,7.51,0,0,0,.7-3.45,4.3,4.3,0,0,0-.7-2.86A1.71,1.71,0,0,0,306.42,221.81Z" transform="translate(-180.36 -158.35)" style="fill:#ab6868"/><path d="M316,226v5.54c-1,.31-1,0.46-2,0.76V217.2c1-.31,1-0.46,2-0.76v1.4c0-.67.75-1.25,1.25-1.74a5.52,5.52,0,0,1,1.75-1.15c1.32-.56,2.37-0.48,3.12.23s1.13,2,1.13,3.78a9.26,9.26,0,0,1-1.13,4.66,6.34,6.34,0,0,1-3.1,2.82,3.5,3.5,0,0,1-1.8.31C316.73,226.67,316,226.42,316,226Zm5.38-6.3a4.63,4.63,0,0,0-.66-2.88,1.55,1.55,0,0,0-2-.24,3.83,3.83,0,0,0-2,1.9,7.69,7.69,0,0,0-.67,3.43,4.52,4.52,0,0,0,.67,2.86,1.58,1.58,0,0,0,2,.24,3.76,3.76,0,0,0,2-1.89A7.78,7.78,0,0,0,321.38,219.7Z" transform="translate(-180.36 -158.35)" style="fill:#ab6868"/><path d="M334,209.41v1.76a5.49,5.49,0,0,0-1.56,0,6.15,6.15,0,0,0-1.59.42,5.13,5.13,0,0,0-1.82,1.14,2.07,2.07,0,0,0-.6,1.45,0.86,0.86,0,0,0,.45.91,5.3,5.3,0,0,0,2.24-.21l0.72-.16a2.55,2.55,0,0,1,2,.19,1.94,1.94,0,0,1,.69,1.7,4.58,4.58,0,0,1-1.15,3,10.39,10.39,0,0,1-4.69,2.74c-0.59.13-1.71,0.22-1.71,0.28v-1.86a6.45,6.45,0,0,0,1.71,0,6.1,6.1,0,0,0,1.63-.45,4.59,4.59,0,0,0,1.79-1.24,2.38,2.38,0,0,0,.63-1.62c0-.83-0.81-1.09-2.41-0.75h-0.08l-0.68.14a3.26,3.26,0,0,1-2.27-.09,1.77,1.77,0,0,1-.71-1.66,4.4,4.4,0,0,1,1.06-2.87,7.52,7.52,0,0,1,3-2.1,9.73,9.73,0,0,1,1.7-.53A5.11,5.11,0,0,1,334,209.41Z" transform="translate(-180.36 -158.35)" style="fill:#ab6868"/><path d="M343,202.54v3.11a15.92,15.92,0,0,1,4-1.57v1.4a15.92,15.92,0,0,0-4,1.57V213c0,0.81-.09,1.31.22,1.51a2.08,2.08,0,0,0,1.68-.14c0.81-.31,1.1-0.47,2.1-0.77V215c-1,.33-1.52.5-2.39,0.84-1.35.52-2.26,0.62-2.81,0.29S341,215,341,213.68v-5.94c-1,.46-2,0.69-3,1.15v-1.4c1-.46,2-0.69,3-1.15v-3.11C341,203,342,202.82,343,202.54Z" transform="translate(-180.36 -158.35)" style="fill:#ab6868"/><path d="M352,202.23a15.15,15.15,0,0,1,4-1.67v9.5c2-.51,2-0.76,4-1.25v1.4a72.89,72.89,0,0,0-9,3.2V212c1-.53,2-0.79,3-1.3v-8.11c-1,.4-1,0.61-2,1v-1.4Zm2-5.27c1-.26,2-0.39,2-0.64v2.27c0,0.26-1,.38-2,0.64V197Z" transform="translate(-180.36 -158.35)" style="fill:#ab6868"/><path d="M371,206a6.09,6.09,0,0,0-1.5,1.1,7.81,7.81,0,0,1-1.57.71c-1.69.54-3,.47-4-0.23s-1.43-1.94-1.43-3.74a7.87,7.87,0,0,1,1.43-4.7,7.57,7.57,0,0,1,4-2.82,6,6,0,0,1,1.56-.29,7.64,7.64,0,0,1,1.53.16v1.88a11,11,0,0,0-1.45-.47,4.31,4.31,0,0,0-1.63.23,4.72,4.72,0,0,0-2.6,1.94,6.14,6.14,0,0,0-.91,3.43,3.61,3.61,0,0,0,.91,2.82,2.56,2.56,0,0,0,2.59.26,6.26,6.26,0,0,0,1.69-.82c0.49-.35,1.39-0.79,1.39-1.32V206Z" transform="translate(-180.36 -158.35)" style="fill:#ab6868"/><path d="M382,192.76v1.76a3,3,0,0,0-1.48-.25,5.35,5.35,0,0,0-1.55.22,4.24,4.24,0,0,0-1.8.91,1.82,1.82,0,0,0-.59,1.38,1,1,0,0,0,.45,1,5.37,5.37,0,0,0,2.24.07l0.72-.06a2.7,2.7,0,0,1,2,.46,2.22,2.22,0,0,1,.69,1.8,4,4,0,0,1-1.15,2.84,6.83,6.83,0,0,1-3.2,1.8,8.18,8.18,0,0,1-1.56.31A15.82,15.82,0,0,1,375,205v-1.86a4.64,4.64,0,0,0,1.79.21,6,6,0,0,0,1.67-.24,4,4,0,0,0,1.81-1,2.1,2.1,0,0,0,.64-1.53c0-.83-0.81-1.2-2.4-1.07h-0.08l-0.68.05a3.43,3.43,0,0,1-2.27-.37,2,2,0,0,1-.71-1.75,3.93,3.93,0,0,1,1.06-2.74,6.31,6.31,0,0,1,3-1.72,8,8,0,0,1,1.61-.31A5.31,5.31,0,0,1,382,192.76Z" transform="translate(-180.36 -158.35)" style="fill:#ab6868"/></svg>