<svg id="Layer_1" data-name="Layer 1" xmlns="http://www.w3.org/2000/svg" viewBox="0 0 623.77 140.07"><title>test</title><text transform="translate(44.49 50.37)" style="font-size:20px;font-family:Menlo;font-weight:700">Fiber oopstics is a way to call out/capture <tspan x="0" y="25">the digital errors we encounter in all shapes </tspan><tspan x="0" y="50">and forms: </tspan></text><rect y="45" width="45" height="50.08" style="fill:none"/><rect x="20.91" y="48.7" width="4.5" height="9.3" style="fill:#231f20"/><rect x="20.91" y="65.37" width="4.5" height="9.3" style="fill:#231f20"/><rect x="20.91" y="81.99" width="4.5" height="9.3" style="fill:#231f20"/><rect x="45" width="41.06" height="45" style="fill:none"/><rect x="75.4" y="20.91" width="7.62" height="4.5" style="fill:#231f20"/><rect x="61.73" y="20.91" width="7.62" height="4.5" style="fill:#231f20"/><rect x="48.11" y="20.91" width="7.62" height="4.5" style="fill:#231f20"/><rect x="86.06" width="41.06" height="45" style="fill:none"/><rect x="116.46" y="20.91" width="7.62" height="4.5" style="fill:#231f20"/><rect x="102.79" y="20.91" width="7.62" height="4.5" style="fill:#231f20"/><rect x="89.17" y="20.91" width="7.62" height="4.5" style="fill:#231f20"/><rect x="127.12" width="41.06" height="45" style="fill:none"/><rect x="157.52" y="20.91" width="7.62" height="4.5" style="fill:#231f20"/><rect x="143.85" y="20.91" width="7.62" height="4.5" style="fill:#231f20"/><rect x="130.23" y="20.91" width="7.62" height="4.5" style="fill:#231f20"/><rect x="168.18" width="41.06" height="45" style="fill:none"/><rect x="198.58" y="20.91" width="7.62" height="4.5" style="fill:#231f20"/><rect x="184.91" y="20.91" width="7.62" height="4.5" style="fill:#231f20"/><rect x="171.29" y="20.91" width="7.62" height="4.5" style="fill:#231f20"/><rect x="209.24" width="41.06" height="45" style="fill:none"/><rect x="239.64" y="20.91" width="7.62" height="4.5" style="fill:#231f20"/><rect x="225.97" y="20.91" width="7.62" height="4.5" style="fill:#231f20"/><rect x="212.35" y="20.91" width="7.62" height="4.5" style="fill:#231f20"/><rect x="250.3" width="41.06" height="45" style="fill:none"/><rect x="280.7" y="20.91" width="7.62" height="4.5" style="fill:#231f20"/><rect x="267.03" y="20.91" width="7.62" height="4.5" style="fill:#231f20"/><rect x="253.41" y="20.91" width="7.62" height="4.5" style="fill:#231f20"/><rect x="291.36" width="41.06" height="45" style="fill:none"/><rect x="321.76" y="20.91" width="7.62" height="4.5" style="fill:#231f20"/><rect x="308.09" y="20.91" width="7.62" height="4.5" style="fill:#231f20"/><rect x="294.47" y="20.91" width="7.62" height="4.5" style="fill:#231f20"/><rect x="332.42" width="41.06" height="45" style="fill:none"/><rect x="362.82" y="20.91" width="7.62" height="4.5" style="fill:#231f20"/><rect x="349.15" y="20.91" width="7.62" height="4.5" style="fill:#231f20"/><rect x="335.53" y="20.91" width="7.62" height="4.5" style="fill:#231f20"/><rect x="373.48" width="41.06" height="45" style="fill:none"/><rect x="403.88" y="20.91" width="7.62" height="4.5" style="fill:#231f20"/><rect x="390.21" y="20.91" width="7.62" height="4.5" style="fill:#231f20"/><rect x="376.59" y="20.91" width="7.62" height="4.5" style="fill:#231f20"/><rect x="414.54" width="41.06" height="45" style="fill:none"/><rect x="444.94" y="20.91" width="7.62" height="4.5" style="fill:#231f20"/><rect x="431.27" y="20.91" width="7.62" height="4.5" style="fill:#231f20"/><rect x="417.65" y="20.91" width="7.62" height="4.5" style="fill:#231f20"/><rect x="455.6" width="41.06" height="45" style="fill:none"/><rect x="486" y="20.91" width="7.62" height="4.5" style="fill:#231f20"/><rect x="472.33" y="20.91" width="7.62" height="4.5" style="fill:#231f20"/><rect x="458.71" y="20.91" width="7.62" height="4.5" style="fill:#231f20"/><rect x="496.66" width="41.06" height="45" style="fill:none"/><rect x="527.06" y="20.91" width="7.62" height="4.5" style="fill:#231f20"/><rect x="513.39" y="20.91" width="7.62" height="4.5" style="fill:#231f20"/><rect x="499.77" y="20.91" width="7.62" height="4.5" style="fill:#231f20"/><rect x="537.72" width="41.06" height="45" style="fill:none"/><rect x="568.12" y="20.91" width="7.62" height="4.5" style="fill:#231f20"/><rect x="554.45" y="20.91" width="7.62" height="4.5" style="fill:#231f20"/><rect x="540.83" y="20.91" width="7.62" height="4.5" style="fill:#231f20"/><rect x="578.78" y="45" width="45" height="50.08" style="fill:none"/><rect x="598.37" y="82.08" width="4.5" height="9.3" style="fill:#231f20"/><rect x="598.37" y="65.41" width="4.5" height="9.3" style="fill:#231f20"/><rect x="598.37" y="48.79" width="4.5" height="9.3" style="fill:#231f20"/><rect x="537.72" y="95.08" width="41.06" height="45" style="fill:none"/><rect x="540.75" y="114.67" width="7.62" height="4.5" style="fill:#231f20"/><rect x="554.42" y="114.67" width="7.62" height="4.5" style="fill:#231f20"/><rect x="568.05" y="114.67" width="7.62" height="4.5" style="fill:#231f20"/><rect x="496.66" y="95.08" width="41.06" height="45" style="fill:none"/><rect x="499.69" y="114.67" width="7.62" height="4.5" style="fill:#231f20"/><rect x="513.36" y="114.67" width="7.62" height="4.5" style="fill:#231f20"/><rect x="526.99" y="114.67" width="7.62" height="4.5" style="fill:#231f20"/><rect x="455.6" y="95.08" width="41.06" height="45" style="fill:none"/><rect x="458.63" y="114.67" width="7.62" height="4.5" style="fill:#231f20"/><rect x="472.3" y="114.67" width="7.62" height="4.5" style="fill:#231f20"/><rect x="485.93" y="114.67" width="7.62" height="4.5" style="fill:#231f20"/><rect x="414.54" y="95.08" width="41.06" height="45" style="fill:none"/><rect x="417.57" y="114.67" width="7.62" height="4.5" style="fill:#231f20"/><rect x="431.24" y="114.67" width="7.62" height="4.5" style="fill:#231f20"/><rect x="444.87" y="114.67" width="7.62" height="4.5" style="fill:#231f20"/><rect x="373.48" y="95.08" width="41.06" height="45" style="fill:none"/><rect x="376.51" y="114.67" width="7.62" height="4.5" style="fill:#231f20"/><rect x="390.18" y="114.67" width="7.62" height="4.5" style="fill:#231f20"/><rect x="403.81" y="114.67" width="7.62" height="4.5" style="fill:#231f20"/><rect x="332.42" y="95.08" width="41.06" height="45" style="fill:none"/><rect x="335.45" y="114.67" width="7.62" height="4.5" style="fill:#231f20"/><rect x="349.12" y="114.67" width="7.62" height="4.5" style="fill:#231f20"/><rect x="362.75" y="114.67" width="7.62" height="4.5" style="fill:#231f20"/><rect x="291.36" y="95.08" width="41.06" height="45" style="fill:none"/><rect x="294.39" y="114.67" width="7.62" height="4.5" style="fill:#231f20"/><rect x="308.06" y="114.67" width="7.62" height="4.5" style="fill:#231f20"/><rect x="321.68" y="114.67" width="7.62" height="4.5" style="fill:#231f20"/><rect x="250.3" y="95.08" width="41.06" height="45" style="fill:none"/><rect x="253.33" y="114.67" width="7.62" height="4.5" style="fill:#231f20"/><rect x="267" y="114.67" width="7.62" height="4.5" style="fill:#231f20"/><rect x="280.62" y="114.67" width="7.62" height="4.5" style="fill:#231f20"/><rect x="209.24" y="95.08" width="41.06" height="45" style="fill:none"/><rect x="212.27" y="114.67" width="7.62" height="4.5" style="fill:#231f20"/><rect x="225.94" y="114.67" width="7.62" height="4.5" style="fill:#231f20"/><rect x="239.56" y="114.67" width="7.62" height="4.5" style="fill:#231f20"/><rect x="168.18" y="95.08" width="41.06" height="45" style="fill:none"/><rect x="171.21" y="114.67" width="7.62" height="4.5" style="fill:#231f20"/><rect x="184.88" y="114.67" width="7.62" height="4.5" style="fill:#231f20"/><rect x="198.5" y="114.67" width="7.62" height="4.5" style="fill:#231f20"/><rect x="127.12" y="95.08" width="41.06" height="45" style="fill:none"/><rect x="130.15" y="114.67" width="7.62" height="4.5" style="fill:#231f20"/><rect x="143.82" y="114.67" width="7.62" height="4.5" style="fill:#231f20"/><rect x="157.44" y="114.67" width="7.62" height="4.5" style="fill:#231f20"/><rect x="86.06" y="95.08" width="41.06" height="45" style="fill:none"/><rect x="89.09" y="114.67" width="7.62" height="4.5" style="fill:#231f20"/><rect x="102.76" y="114.67" width="7.62" height="4.5" style="fill:#231f20"/><rect x="116.38" y="114.67" width="7.62" height="4.5" style="fill:#231f20"/><rect x="45" y="95.08" width="41.06" height="45" style="fill:none"/><rect x="48.03" y="114.67" width="7.62" height="4.5" style="fill:#231f20"/><rect x="61.7" y="114.67" width="7.62" height="4.5" style="fill:#231f20"/><rect x="75.32" y="114.67" width="7.62" height="4.5" style="fill:#231f20"/><rect x="20.59" y="34.4" width="4.52" height="7.5" style="fill:#231f20"/><polygon points="20.59 20.9 20.59 28.4 25.11 28.4 25.11 25.4 28.09 25.4 28.09 20.9 20.59 20.9" style="fill:#231f20;fill-rule:evenodd"/><rect x="34.09" y="20.9" width="7.5" height="4.5" style="fill:#231f20"/><rect x="581.87" y="20.59" width="7.5" height="4.52" style="fill:#231f20"/><polygon points="602.87 20.59 595.37 20.59 595.37 25.11 598.37 25.11 598.37 28.09 602.87 28.09 602.87 20.59" style="fill:#231f20;fill-rule:evenodd"/><rect x="598.37" y="34.09" width="4.5" height="7.5" style="fill:#231f20"/><rect x="598.67" y="98.17" width="4.52" height="7.5" style="fill:#231f20"/><polygon points="603.19 119.17 603.19 111.67 598.67 111.67 598.67 114.67 595.69 114.67 595.69 119.17 603.19 119.17" style="fill:#231f20;fill-rule:evenodd"/><rect x="582.19" y="114.67" width="7.5" height="4.5" style="fill:#231f20"/><rect x="34.4" y="114.97" width="7.5" height="4.52" style="fill:#231f20"/><polygon points="20.9 119.48 28.4 119.48 28.4 114.97 25.4 114.97 25.4 111.98 20.9 111.98 20.9 119.48" style="fill:#231f20;fill-rule:evenodd"/><rect x="20.9" y="98.48" width="4.5" height="7.5" style="fill:#231f20"/></svg>