<?xml version="1.0" encoding="utf-8"?>
<!-- Generator: Adobe Illustrator 19.2.0, SVG Export Plug-In . SVG Version: 6.00 Build 0)  -->
<svg version="1.1" id="Layer_1" xmlns="http://www.w3.org/2000/svg" xmlns:xlink="http://www.w3.org/1999/xlink" x="0px" y="0px"
	 viewBox="0 0 830 746" style="enable-background:new 0 0 830 746;" xml:space="preserve">
<style type="text/css">
	.st0{opacity:0.86;fill:#FCEE21;enable-background:new    ;}
	.st1{font-family:'Menlo-Bold';}
	.st2{font-size:20px;}
	.st3{fill:none;}
	.st4{fill:#231F20;}
	.st5{font-family:'Menlo-Italic';}
	.st6{font-size:22.1692px;}
	.st7{font-size:22.127px;}
	.st8{font-size:22.1303px;}
	.st9{font-size:22.24px;}
	.st10{font-size:22.1381px;}
	.st11{font-size:22.1791px;}
	.st12{font-size:22.272px;}
	.st13{font-size:22.0859px;}
	.st14{font-size:22.1969px;}
	.st15{font-size:22.1003px;}
	.st16{font-size:22.1081px;}
	.st17{font-size:22.2101px;}
	.st18{font-size:22.117px;}
	.st19{font-size:22.2068px;}
	.st20{font-size:22.3073px;}
	.st21{fill:#010101;}
	.st22{fill:#FFFFFF;}
</style>
<title>text6</title>
<rect x="42.2" y="42" class="st0" width="168.5" height="24"/>
<text transform="matrix(1 0 0 1 42.17 59.86)" class="st1 st2">Fiber oopstics are glitches </text>
<text transform="matrix(1 0 0 1 42.17 84.86)" class="st1 st2">and errors caught in the </text>
<text transform="matrix(1 0 0 1 42.17 109.86)" class="st1 st2">wild; feedback, screens and </text>
<text transform="matrix(1 0 0 1 42.17 134.86)" class="st1 st2">messages that are </text>
<text transform="matrix(1 0 0 1 42.17 159.86)" class="st1 st2">unanticipated and unintended.</text>
<rect y="123.4" class="st3" width="45" height="39.2"/>
<rect x="20.9" y="126.3" class="st4" width="4.5" height="7.3"/>
<rect x="20.9" y="139.4" class="st4" width="4.5" height="7.3"/>
<rect x="20.9" y="152.4" class="st4" width="4.5" height="7.3"/>
<rect y="84.2" class="st3" width="45" height="39.2"/>
<rect x="20.9" y="87.1" class="st4" width="4.5" height="7.3"/>
<rect x="20.9" y="100.2" class="st4" width="4.5" height="7.3"/>
<rect x="20.9" y="113.2" class="st4" width="4.5" height="7.3"/>
<rect y="45" class="st3" width="45" height="39.2"/>
<rect x="20.9" y="47.9" class="st4" width="4.5" height="7.3"/>
<rect x="20.9" y="60.9" class="st4" width="4.5" height="7.3"/>
<rect x="20.9" y="73.9" class="st4" width="4.5" height="7.3"/>
<rect x="45" class="st3" width="41.4" height="45"/>
<rect x="75.7" y="20.9" class="st4" width="7.7" height="4.5"/>
<rect x="61.9" y="20.9" class="st4" width="7.7" height="4.5"/>
<rect x="48.1" y="20.9" class="st4" width="7.7" height="4.5"/>
<rect x="86.4" class="st3" width="41.4" height="45"/>
<rect x="117.1" y="20.9" class="st4" width="7.7" height="4.5"/>
<rect x="103.3" y="20.9" class="st4" width="7.7" height="4.5"/>
<rect x="89.6" y="20.9" class="st4" width="7.7" height="4.5"/>
<rect x="127.8" class="st3" width="41.4" height="45"/>
<rect x="158.5" y="20.9" class="st4" width="7.7" height="4.5"/>
<rect x="144.7" y="20.9" class="st4" width="7.7" height="4.5"/>
<rect x="131" y="20.9" class="st4" width="7.7" height="4.5"/>
<rect x="169.3" class="st3" width="41.4" height="45"/>
<rect x="199.9" y="20.9" class="st4" width="7.7" height="4.5"/>
<rect x="186.2" y="20.9" class="st4" width="7.7" height="4.5"/>
<rect x="172.4" y="20.9" class="st4" width="7.7" height="4.5"/>
<rect x="210.7" class="st3" width="41.4" height="45"/>
<rect x="241.4" y="20.9" class="st4" width="7.7" height="4.5"/>
<rect x="227.6" y="20.9" class="st4" width="7.7" height="4.5"/>
<rect x="213.8" y="20.9" class="st4" width="7.7" height="4.5"/>
<rect x="252.1" class="st3" width="41.4" height="45"/>
<rect x="282.8" y="20.9" class="st4" width="7.7" height="4.5"/>
<rect x="269" y="20.9" class="st4" width="7.7" height="4.5"/>
<rect x="255.3" y="20.9" class="st4" width="7.7" height="4.5"/>
<rect x="293.5" class="st3" width="41.4" height="45"/>
<rect x="324.2" y="20.9" class="st4" width="7.7" height="4.5"/>
<rect x="310.4" y="20.9" class="st4" width="7.7" height="4.5"/>
<rect x="296.7" y="20.9" class="st4" width="7.7" height="4.5"/>
<rect x="335" class="st3" width="41.4" height="45"/>
<rect x="365.6" y="20.9" class="st4" width="7.7" height="4.5"/>
<rect x="351.9" y="20.9" class="st4" width="7.7" height="4.5"/>
<rect x="338.1" y="20.9" class="st4" width="7.7" height="4.5"/>
<rect x="376.4" y="45" class="st3" width="45" height="39.2"/>
<rect x="396" y="74" class="st4" width="4.5" height="7.3"/>
<rect x="396" y="61" class="st4" width="4.5" height="7.3"/>
<rect x="396" y="48" class="st4" width="4.5" height="7.3"/>
<rect x="376.4" y="84.2" class="st3" width="45" height="39.2"/>
<rect x="396" y="113.2" class="st4" width="4.5" height="7.3"/>
<rect x="396" y="100.2" class="st4" width="4.5" height="7.3"/>
<rect x="396" y="87.2" class="st4" width="4.5" height="7.3"/>
<rect x="376.4" y="123.4" class="st3" width="45" height="39.2"/>
<rect x="396" y="152.4" class="st4" width="4.5" height="7.3"/>
<rect x="396" y="139.4" class="st4" width="4.5" height="7.3"/>
<rect x="396" y="126.4" class="st4" width="4.5" height="7.3"/>
<rect x="335" y="162.6" class="st3" width="41.4" height="45"/>
<rect x="338" y="182.2" class="st4" width="7.7" height="4.5"/>
<rect x="351.8" y="182.2" class="st4" width="7.7" height="4.5"/>
<rect x="365.6" y="182.2" class="st4" width="7.7" height="4.5"/>
<rect x="293.5" y="162.6" class="st3" width="41.4" height="45"/>
<rect x="296.6" y="182.2" class="st4" width="7.7" height="4.5"/>
<rect x="310.4" y="182.2" class="st4" width="7.7" height="4.5"/>
<rect x="324.1" y="182.2" class="st4" width="7.7" height="4.5"/>
<rect x="252.1" y="162.6" class="st3" width="41.4" height="45"/>
<rect x="255.2" y="182.2" class="st4" width="7.7" height="4.5"/>
<rect x="269" y="182.2" class="st4" width="7.7" height="4.5"/>
<rect x="282.7" y="182.2" class="st4" width="7.7" height="4.5"/>
<rect x="210.7" y="162.6" class="st3" width="41.4" height="45"/>
<rect x="213.8" y="182.2" class="st4" width="7.7" height="4.5"/>
<rect x="227.6" y="182.2" class="st4" width="7.7" height="4.5"/>
<rect x="241.3" y="182.2" class="st4" width="7.7" height="4.5"/>
<rect x="169.3" y="162.6" class="st3" width="41.4" height="45"/>
<rect x="172.3" y="182.2" class="st4" width="7.7" height="4.5"/>
<rect x="186.1" y="182.2" class="st4" width="7.7" height="4.5"/>
<rect x="199.9" y="182.2" class="st4" width="7.7" height="4.5"/>
<rect x="127.8" y="162.6" class="st3" width="41.4" height="45"/>
<rect x="130.9" y="182.2" class="st4" width="7.7" height="4.5"/>
<rect x="144.7" y="182.2" class="st4" width="7.7" height="4.5"/>
<rect x="158.4" y="182.2" class="st4" width="7.7" height="4.5"/>
<rect x="86.4" y="162.6" class="st3" width="41.4" height="45"/>
<rect x="89.5" y="182.2" class="st4" width="7.7" height="4.5"/>
<rect x="103.3" y="182.2" class="st4" width="7.7" height="4.5"/>
<rect x="117" y="182.2" class="st4" width="7.7" height="4.5"/>
<rect x="45" y="162.6" class="st3" width="41.4" height="45"/>
<rect x="48.1" y="182.2" class="st4" width="7.7" height="4.5"/>
<rect x="61.8" y="182.2" class="st4" width="7.7" height="4.5"/>
<rect x="75.6" y="182.2" class="st4" width="7.7" height="4.5"/>
<rect x="20.6" y="34.4" class="st4" width="4.5" height="7.5"/>
<polygon class="st4" points="20.6,20.9 20.6,28.4 25.1,28.4 25.1,25.4 28.1,25.4 28.1,20.9 "/>
<rect x="34.1" y="20.9" class="st4" width="7.5" height="4.5"/>
<rect x="379.5" y="20.6" class="st4" width="7.5" height="4.5"/>
<polygon class="st4" points="400.5,20.6 393,20.6 393,25.1 396,25.1 396,28.1 400.5,28.1 "/>
<rect x="396" y="34.1" class="st4" width="4.5" height="7.5"/>
<rect x="396.3" y="165.7" class="st4" width="4.5" height="7.5"/>
<polygon class="st4" points="400.8,186.7 400.8,179.2 396.3,179.2 396.3,182.2 393.3,182.2 393.3,186.7 "/>
<rect x="379.8" y="182.2" class="st4" width="7.5" height="4.5"/>
<rect x="34.4" y="182.5" class="st4" width="7.5" height="4.5"/>
<polygon class="st4" points="20.9,187 28.4,187 28.4,182.5 25.4,182.5 25.4,179.5 20.9,179.5 "/>
<rect x="20.9" y="166" class="st4" width="4.5" height="7.5"/>
<text transform="matrix(-0.5197 -0.8544 0.8544 -0.5197 82.2457 458.7838)" class="st5 st6">b</text>
<text transform="matrix(-0.4108 -0.9117 0.9117 -0.4108 75.5197 447.771)" class="st5 st7">u</text>
<text transform="matrix(-0.3022 -0.9532 0.9532 -0.3022 70.1534 436.0419)" class="st5 st6">t</text>
<text transform="matrix(-0.1903 -0.9817 0.9817 -0.1903 66.2275 423.745)" class="st5 st8">t</text>
<text transform="matrix(4.937277e-02 -0.9988 0.9988 4.937277e-02 62.9017 398.1971)" class="st5 st6">d</text>
<text transform="matrix(0.1675 -0.9859 0.9859 0.1675 63.5119 385.3009)" class="st5 st6">i</text>
<text transform="matrix(0.2842 -0.9588 0.9588 0.2842 65.6456 372.5817)" class="st5 st6">a</text>
<text transform="matrix(0.3987 -0.9171 0.9171 0.3987 69.2836 360.2041)" class="st5 st9">l</text>
<text transform="matrix(0.6025 -0.7981 0.7981 0.6025 80.86 337.2036)" class="st5 st6">i</text>
<text transform="matrix(0.6928 -0.7212 0.7212 0.6928 88.619 326.877)" class="st5 st6">s</text>
<text transform="matrix(0.8412 -0.5408 0.5408 0.8412 107.48 309.3623)" class="st5 st10">o</text>
<text transform="matrix(0.9008 -0.4341 0.4341 0.9008 118.343 302.3881)" class="st5 st6">u</text>
<text transform="matrix(0.9464 -0.3231 0.3231 0.9464 129.9642 296.7635)" class="st5 st6">t</text>
<text transform="matrix(0.996 -8.958963e-02 8.958963e-02 0.996 154.7753 289.8633)" class="st5 st6">o</text>
<text transform="matrix(0.9996 2.998651e-02 -2.998651e-02 0.9996 167.6239 288.6902)" class="st5 st11">f</text>
<text transform="matrix(0.9649 0.2627 -0.2627 0.9649 193.2852 290.8701)" class="st5 st6">d</text>
<text transform="matrix(0.9257 0.3782 -0.3782 0.9257 205.7455 294.2321)" class="st5 st12">a</text>
<text transform="matrix(0.8749 0.4844 -0.4844 0.8749 217.6991 299.0628)" class="st5 st6">t</text>
<text transform="matrix(0.8131 0.5822 -0.5822 0.8131 228.9868 305.2798)" class="st5 st13">e</text>
<text transform="matrix(0.6512 0.7589 -0.7589 0.6512 248.994 321.5193)" class="st5 st6">t</text>
<text transform="matrix(0.5593 0.829 -0.829 0.5593 257.4266 331.3004)" class="st5 st14">e</text>
<text transform="matrix(0.4538 0.8911 -0.8911 0.4538 264.6329 342.0063)" class="st5 st6">r</text>
<text transform="matrix(0.3442 0.9389 -0.9389 0.3442 270.5067 353.4792)" class="st5 st6">m</text>
<text transform="matrix(0.2307 0.973 -0.973 0.2307 274.9689 365.5795)" class="st5 st15">i</text>
<text transform="matrix(0.1116 0.9937 -0.9937 0.1116 277.9531 378.1329)" class="st5 st6">n</text>
<text transform="matrix(-1.623086e-02 0.9999 -0.9999 -1.623086e-02 279.4863 390.9082)" class="st5 st6">o</text>
<text transform="matrix(-0.1203 0.9927 -0.9927 -0.1203 279.3645 403.8678)" class="st5 st16">l</text>
<text transform="matrix(-0.2412 0.9705 -0.9705 -0.2412 277.8049 416.6711)" class="st5 st6">o</text>
<text transform="matrix(-0.3558 0.9346 -0.9346 -0.3558 274.7206 429.196)" class="st5 st6">g</text>
<text transform="matrix(-0.4592 0.8884 -0.8884 -0.4592 270.1571 441.2513)" class="st5 st17">y</text>
<text transform="matrix(-0.6604 0.7509 -0.7509 -0.6604 256.8831 463.3373)" class="st5 st6">&amp;</text>
<text transform="matrix(-0.8181 0.575 -0.575 -0.8181 238.8064 481.673)" class="st5 st6">t</text>
<text transform="matrix(-0.8821 0.4711 -0.4711 -0.8821 228.2475 489.1268)" class="st5 st18">e</text>
<text transform="matrix(-0.931 0.365 -0.365 -0.931 216.9139 495.2502)" class="st5 st6">c</text>
<text transform="matrix(-0.9684 0.2496 -0.2496 -0.9684 204.9039 499.9807)" class="st5 st19">h</text>
<text transform="matrix(-0.9911 0.1335 -0.1335 -0.9911 192.4248 503.2409)" class="st5 st6">n</text>
<text transform="matrix(-0.9999 1.623072e-02 -1.623072e-02 -0.9999 179.614 504.9881)" class="st5 st6">o</text>
<text transform="matrix(-0.9948 -0.1018 0.1018 -0.9948 166.7369 505.2179)" class="st5 st6">l</text>
<text transform="matrix(-0.9756 -0.2197 0.2197 -0.9756 153.9072 503.9351)" class="st5 st6">o</text>
<text transform="matrix(-0.9435 -0.3312 0.3312 -0.9435 141.3165 501.1355)" class="st5 st13">g</text>
<text transform="matrix(-0.8944 -0.4472 0.4472 -0.8944 129.1504 496.8391)" class="st5 st20">y</text>
<image style="overflow:visible;enable-background:new    ;" width="250" height="330" xlink:href="B190A466E3621DE2.png"  transform="matrix(0.388 0 0 0.388 121.743 332.8527)">
</image>
<text transform="matrix(1 0 0 1 267.34 608.45)" class="st21 st1 st2">As an expression, fiber oopstics takes </text>
<text transform="matrix(1 0 0 1 267.34 633.45)" class="st21 st1 st2">its name from </text>
<text transform="matrix(1 0 0 1 435.91 633.45)" class="st1 st2">fiber optic cables</text>
<text transform="matrix(1 0 0 1 652.65 633.45)" class="st21 st1 st2"> — </text>
<text transform="matrix(1 0 0 1 267.34 658.45)" class="st21 st1 st2">the transoceanic, undersea cables which </text>
<text transform="matrix(1 0 0 1 267.34 683.45)" class="st21 st1 st2">carry internet traffic across networks </text>
<text transform="matrix(1 0 0 1 267.34 708.45)" class="st21 st1 st2">and continents via pulses of light.</text>
<rect x="225" y="672.4" class="st3" width="45" height="39.2"/>
<rect x="245.9" y="675.3" class="st22" width="4.5" height="7.3"/>
<rect x="245.9" y="688.3" class="st22" width="4.5" height="7.3"/>
<rect x="245.9" y="701.4" class="st22" width="4.5" height="7.3"/>
<rect x="225" y="633.2" class="st3" width="45" height="39.2"/>
<rect x="245.9" y="636.1" class="st22" width="4.5" height="7.3"/>
<rect x="245.9" y="649.2" class="st22" width="4.5" height="7.3"/>
<rect x="245.9" y="662.2" class="st22" width="4.5" height="7.3"/>
<rect x="225" y="594" class="st3" width="45" height="39.2"/>
<rect x="245.9" y="596.9" class="st22" width="4.5" height="7.3"/>
<rect x="245.9" y="609.9" class="st22" width="4.5" height="7.3"/>
<rect x="245.9" y="623" class="st22" width="4.5" height="7.3"/>
<rect x="270" y="549" class="st3" width="39.5" height="45"/>
<rect x="299.3" y="569.9" class="st22" width="7.3" height="4.5"/>
<rect x="286.1" y="569.9" class="st22" width="7.3" height="4.5"/>
<rect x="273" y="569.9" class="st22" width="7.3" height="4.5"/>
<rect x="309.5" y="549" class="st3" width="39.5" height="45"/>
<rect x="338.8" y="569.9" class="st22" width="7.3" height="4.5"/>
<rect x="325.6" y="569.9" class="st22" width="7.3" height="4.5"/>
<rect x="312.5" y="569.9" class="st22" width="7.3" height="4.5"/>
<rect x="349" y="549" class="st3" width="39.5" height="45"/>
<rect x="378.3" y="569.9" class="st22" width="7.3" height="4.5"/>
<rect x="365.1" y="569.9" class="st22" width="7.3" height="4.5"/>
<rect x="352" y="569.9" class="st22" width="7.3" height="4.5"/>
<rect x="388.6" y="549" class="st3" width="39.5" height="45"/>
<rect x="417.8" y="569.9" class="st22" width="7.3" height="4.5"/>
<rect x="404.7" y="569.9" class="st22" width="7.3" height="4.5"/>
<rect x="391.6" y="569.9" class="st22" width="7.3" height="4.5"/>
<rect x="428.1" y="549" class="st3" width="39.5" height="45"/>
<rect x="457.4" y="569.9" class="st22" width="7.3" height="4.5"/>
<rect x="444.2" y="569.9" class="st22" width="7.3" height="4.5"/>
<rect x="431.1" y="569.9" class="st22" width="7.3" height="4.5"/>
<rect x="467.6" y="549" class="st3" width="39.5" height="45"/>
<rect x="496.9" y="569.9" class="st22" width="7.3" height="4.5"/>
<rect x="483.7" y="569.9" class="st22" width="7.3" height="4.5"/>
<rect x="470.6" y="569.9" class="st22" width="7.3" height="4.5"/>
<rect x="507.1" y="549" class="st3" width="39.5" height="45"/>
<rect x="536.4" y="569.9" class="st22" width="7.3" height="4.5"/>
<rect x="523.2" y="569.9" class="st22" width="7.3" height="4.5"/>
<rect x="510.1" y="569.9" class="st22" width="7.3" height="4.5"/>
<rect x="546.7" y="549" class="st3" width="39.5" height="45"/>
<rect x="575.9" y="569.9" class="st22" width="7.3" height="4.5"/>
<rect x="562.8" y="569.9" class="st22" width="7.3" height="4.5"/>
<rect x="549.7" y="569.9" class="st22" width="7.3" height="4.5"/>
<rect x="586.2" y="549" class="st3" width="39.5" height="45"/>
<rect x="615.5" y="569.9" class="st22" width="7.3" height="4.5"/>
<rect x="602.3" y="569.9" class="st22" width="7.3" height="4.5"/>
<rect x="589.2" y="569.9" class="st22" width="7.3" height="4.5"/>
<rect x="625.7" y="549" class="st3" width="39.5" height="45"/>
<rect x="655" y="569.9" class="st22" width="7.3" height="4.5"/>
<rect x="641.8" y="569.9" class="st22" width="7.3" height="4.5"/>
<rect x="628.7" y="569.9" class="st22" width="7.3" height="4.5"/>
<rect x="665.2" y="549" class="st3" width="39.5" height="45"/>
<rect x="694.5" y="569.9" class="st22" width="7.3" height="4.5"/>
<rect x="681.3" y="569.9" class="st22" width="7.3" height="4.5"/>
<rect x="668.2" y="569.9" class="st22" width="7.3" height="4.5"/>
<rect x="704.8" y="549" class="st3" width="39.5" height="45"/>
<rect x="734" y="569.9" class="st22" width="7.3" height="4.5"/>
<rect x="720.9" y="569.9" class="st22" width="7.3" height="4.5"/>
<rect x="707.8" y="569.9" class="st22" width="7.3" height="4.5"/>
<rect x="744.3" y="594" class="st3" width="45" height="39.2"/>
<rect x="763.9" y="623" class="st22" width="4.5" height="7.3"/>
<rect x="763.9" y="610" class="st22" width="4.5" height="7.3"/>
<rect x="763.9" y="597" class="st22" width="4.5" height="7.3"/>
<rect x="744.3" y="633.2" class="st3" width="45" height="39.2"/>
<rect x="763.9" y="662.2" class="st22" width="4.5" height="7.3"/>
<rect x="763.9" y="649.2" class="st22" width="4.5" height="7.3"/>
<rect x="763.9" y="636.2" class="st22" width="4.5" height="7.3"/>
<rect x="744.3" y="672.4" class="st3" width="45" height="39.2"/>
<rect x="763.9" y="701.4" class="st22" width="4.5" height="7.3"/>
<rect x="763.9" y="688.4" class="st22" width="4.5" height="7.3"/>
<rect x="763.9" y="675.4" class="st22" width="4.5" height="7.3"/>
<rect x="704.8" y="711.6" class="st3" width="39.5" height="45"/>
<rect x="707.7" y="731.2" class="st22" width="7.3" height="4.5"/>
<rect x="720.8" y="731.2" class="st22" width="7.3" height="4.5"/>
<rect x="734" y="731.2" class="st22" width="7.3" height="4.5"/>
<rect x="665.2" y="711.6" class="st3" width="39.5" height="45"/>
<rect x="668.2" y="731.2" class="st22" width="7.3" height="4.5"/>
<rect x="681.3" y="731.2" class="st22" width="7.3" height="4.5"/>
<rect x="694.4" y="731.2" class="st22" width="7.3" height="4.5"/>
<rect x="625.7" y="711.6" class="st3" width="39.5" height="45"/>
<rect x="628.6" y="731.2" class="st22" width="7.3" height="4.5"/>
<rect x="641.8" y="731.2" class="st22" width="7.3" height="4.5"/>
<rect x="654.9" y="731.2" class="st22" width="7.3" height="4.5"/>
<rect x="586.2" y="711.6" class="st3" width="39.5" height="45"/>
<rect x="589.1" y="731.2" class="st22" width="7.3" height="4.5"/>
<rect x="602.3" y="731.2" class="st22" width="7.3" height="4.5"/>
<rect x="615.4" y="731.2" class="st22" width="7.3" height="4.5"/>
<rect x="546.7" y="711.6" class="st3" width="39.5" height="45"/>
<rect x="549.6" y="731.2" class="st22" width="7.3" height="4.5"/>
<rect x="562.7" y="731.2" class="st22" width="7.3" height="4.5"/>
<rect x="575.8" y="731.2" class="st22" width="7.3" height="4.5"/>
<rect x="507.1" y="711.6" class="st3" width="39.5" height="45"/>
<rect x="510.1" y="731.2" class="st22" width="7.3" height="4.5"/>
<rect x="523.2" y="731.2" class="st22" width="7.3" height="4.5"/>
<rect x="536.3" y="731.2" class="st22" width="7.3" height="4.5"/>
<rect x="467.6" y="711.6" class="st3" width="39.5" height="45"/>
<rect x="470.5" y="731.2" class="st22" width="7.3" height="4.5"/>
<rect x="483.7" y="731.2" class="st22" width="7.3" height="4.5"/>
<rect x="496.8" y="731.2" class="st22" width="7.3" height="4.5"/>
<rect x="428.1" y="711.6" class="st3" width="39.5" height="45"/>
<rect x="431" y="731.2" class="st22" width="7.3" height="4.5"/>
<rect x="444.2" y="731.2" class="st22" width="7.3" height="4.5"/>
<rect x="457.3" y="731.2" class="st22" width="7.3" height="4.5"/>
<rect x="388.6" y="711.6" class="st3" width="39.5" height="45"/>
<rect x="391.5" y="731.2" class="st22" width="7.3" height="4.5"/>
<rect x="404.6" y="731.2" class="st22" width="7.3" height="4.5"/>
<rect x="417.8" y="731.2" class="st22" width="7.3" height="4.5"/>
<rect x="349" y="711.6" class="st3" width="39.5" height="45"/>
<rect x="352" y="731.2" class="st22" width="7.3" height="4.5"/>
<rect x="365.1" y="731.2" class="st22" width="7.3" height="4.5"/>
<rect x="378.2" y="731.2" class="st22" width="7.3" height="4.5"/>
<rect x="309.5" y="711.6" class="st3" width="39.5" height="45"/>
<rect x="312.4" y="731.2" class="st22" width="7.3" height="4.5"/>
<rect x="325.6" y="731.2" class="st22" width="7.3" height="4.5"/>
<rect x="338.7" y="731.2" class="st22" width="7.3" height="4.5"/>
<rect x="270" y="711.6" class="st3" width="39.5" height="45"/>
<rect x="272.9" y="731.2" class="st22" width="7.3" height="4.5"/>
<rect x="286.1" y="731.2" class="st22" width="7.3" height="4.5"/>
<rect x="299.2" y="731.2" class="st22" width="7.3" height="4.5"/>
<rect x="245.6" y="583.4" class="st22" width="4.5" height="7.5"/>
<polygon class="st22" points="245.6,569.9 245.6,577.4 250.1,577.4 250.1,574.4 253.1,574.4 253.1,569.9 "/>
<rect x="259.1" y="569.9" class="st22" width="7.5" height="4.5"/>
<rect x="747.4" y="569.6" class="st22" width="7.5" height="4.5"/>
<polygon class="st22" points="768.4,569.6 760.9,569.6 760.9,574.1 763.9,574.1 763.9,577.1 768.4,577.1 "/>
<rect x="763.9" y="583.1" class="st22" width="4.5" height="7.5"/>
<rect x="764.2" y="714.7" class="st22" width="4.5" height="7.5"/>
<polygon class="st22" points="768.7,735.7 768.7,728.2 764.2,728.2 764.2,731.2 761.2,731.2 761.2,735.7 "/>
<rect x="747.7" y="731.2" class="st22" width="7.5" height="4.5"/>
<rect x="259.4" y="731.5" class="st22" width="7.5" height="4.5"/>
<polygon class="st22" points="245.9,736 253.4,736 253.4,731.5 250.4,731.5 250.4,728.5 245.9,728.5 "/>
<rect x="245.9" y="715" class="st22" width="4.5" height="7.5"/>
</svg>
