<svg id="Layer_1" data-name="Layer 1" xmlns="http://www.w3.org/2000/svg" viewBox="0 0 549.2 159.72"><title>text2</title><rect x="35.7" y="6.82" width="504.4" height="150.9" style="fill:none;stroke:#003abc;stroke-miterlimit:10;stroke-width:4px"/><text transform="translate(63.15 60.34)" style="isolation:isolate;font-size:20px;font-family:Menlo">... The mistakes that happen in our</text><text transform="translate(63.15 85.34)" style="isolation:isolate;font-size:20px;font-family:Menlo">interactions with digital devices</text><text transform="translate(63.15 110.34)" style="isolation:isolate;font-size:20px;font-family:Menlo">(both public &amp; personal)</text><rect x="25" y="79.82" width="45" height="33.3" style="fill:none"/><rect x="45.9" y="82.22" width="4.5" height="6.2" style="fill:#231f20"/><rect x="45.9" y="93.32" width="4.5" height="6.2" style="fill:#231f20"/><rect x="45.9" y="104.32" width="4.5" height="6.2" style="fill:#231f20"/><rect y="21.52" width="45" height="33.3" style="fill:none"/><rect x="45.9" y="48.92" width="4.5" height="6.2" style="fill:#231f20"/><rect x="45.9" y="60.02" width="4.5" height="6.2" style="fill:#231f20"/><rect x="45.9" y="71.12" width="4.5" height="6.2" style="fill:#231f20"/><rect x="70" y="1.52" width="39.5" height="45" style="fill:none"/><rect x="99.2" y="22.42" width="7.3" height="4.5" style="fill:#231f20"/><rect x="86.1" y="22.42" width="7.3" height="4.5" style="fill:#231f20"/><rect x="73" y="22.42" width="7.3" height="4.5" style="fill:#231f20"/><rect x="109.5" y="1.52" width="39.5" height="45" style="fill:none"/><rect x="138.7" y="22.42" width="7.3" height="4.5" style="fill:#231f20"/><rect x="125.6" y="22.42" width="7.3" height="4.5" style="fill:#231f20"/><rect x="112.5" y="22.42" width="7.3" height="4.5" style="fill:#231f20"/><rect x="148.9" y="1.52" width="39.5" height="45" style="fill:none"/><rect x="178.2" y="22.42" width="7.3" height="4.5" style="fill:#231f20"/><rect x="165" y="22.42" width="7.3" height="4.5" style="fill:#231f20"/><rect x="151.9" y="22.42" width="7.3" height="4.5" style="fill:#231f20"/><rect x="188.4" y="1.52" width="39.5" height="45" style="fill:none"/><rect x="217.7" y="22.42" width="7.3" height="4.5" style="fill:#231f20"/><rect x="204.5" y="22.42" width="7.3" height="4.5" style="fill:#231f20"/><rect x="191.4" y="22.42" width="7.3" height="4.5" style="fill:#231f20"/><rect x="227.9" y="1.52" width="39.5" height="45" style="fill:none"/><rect x="257.1" y="22.42" width="7.3" height="4.5" style="fill:#231f20"/><rect x="244" y="22.42" width="7.3" height="4.5" style="fill:#231f20"/><rect x="230.9" y="22.42" width="7.3" height="4.5" style="fill:#231f20"/><rect x="267.4" y="1.52" width="39.5" height="45" style="fill:none"/><rect x="296.6" y="22.42" width="7.3" height="4.5" style="fill:#231f20"/><rect x="283.5" y="22.42" width="7.3" height="4.5" style="fill:#231f20"/><rect x="270.4" y="22.42" width="7.3" height="4.5" style="fill:#231f20"/><rect x="306.9" y="1.52" width="39.5" height="45" style="fill:none"/><rect x="336.1" y="22.42" width="7.3" height="4.5" style="fill:#231f20"/><rect x="323" y="22.42" width="7.3" height="4.5" style="fill:#231f20"/><rect x="309.9" y="22.42" width="7.3" height="4.5" style="fill:#231f20"/><rect x="346.3" y="1.52" width="39.5" height="45" style="fill:none"/><rect x="375.6" y="22.42" width="7.3" height="4.5" style="fill:#231f20"/><rect x="362.4" y="22.42" width="7.3" height="4.5" style="fill:#231f20"/><rect x="349.3" y="22.42" width="7.3" height="4.5" style="fill:#231f20"/><rect x="385.8" y="1.52" width="39.5" height="45" style="fill:none"/><rect x="415" y="22.42" width="7.3" height="4.5" style="fill:#231f20"/><rect x="401.9" y="22.42" width="7.3" height="4.5" style="fill:#231f20"/><rect x="388.8" y="22.42" width="7.3" height="4.5" style="fill:#231f20"/><text x="25" y="1.52"/><rect x="454.5" y="22.42" width="7.3" height="4.5" style="fill:#231f20"/><rect x="441.4" y="22.42" width="7.3" height="4.5" style="fill:#231f20"/><rect x="428.3" y="22.42" width="7.3" height="4.5" style="fill:#231f20"/><rect x="464.8" y="1.52" width="39.5" height="45" style="fill:none"/><rect x="494" y="22.42" width="7.3" height="4.5" style="fill:#231f20"/><rect x="480.9" y="22.42" width="7.3" height="4.5" style="fill:#231f20"/><rect x="467.8" y="22.42" width="7.3" height="4.5" style="fill:#231f20"/><rect x="504.2" y="46.52" width="45" height="33.3" style="fill:none"/><rect x="523.8" y="71.12" width="4.5" height="6.2" style="fill:#231f20"/><rect x="523.8" y="60.12" width="4.5" height="6.2" style="fill:#231f20"/><rect x="523.8" y="49.02" width="4.5" height="6.2" style="fill:#231f20"/><rect x="504.2" y="79.82" width="45" height="33.3" style="fill:none"/><rect x="523.8" y="104.42" width="4.5" height="6.2" style="fill:#231f20"/><rect x="523.8" y="93.32" width="4.5" height="6.2" style="fill:#231f20"/><rect x="523.8" y="82.32" width="4.5" height="6.2" style="fill:#231f20"/><rect x="464.8" y="113.02" width="39.5" height="45" style="fill:none"/><rect x="467.7" y="132.62" width="7.3" height="4.5" style="fill:#231f20"/><rect x="480.8" y="132.62" width="7.3" height="4.5" style="fill:#231f20"/><rect x="493.9" y="132.62" width="7.3" height="4.5" style="fill:#231f20"/><rect x="425.3" y="113.02" width="39.5" height="45" style="fill:none"/><rect x="428.2" y="132.62" width="7.3" height="4.5" style="fill:#231f20"/><rect x="441.4" y="132.62" width="7.3" height="4.5" style="fill:#231f20"/><rect x="454.5" y="132.62" width="7.3" height="4.5" style="fill:#231f20"/><rect x="385.8" y="113.02" width="39.5" height="45" style="fill:none"/><rect x="388.7" y="132.62" width="7.3" height="4.5" style="fill:#231f20"/><rect x="401.9" y="132.62" width="7.3" height="4.5" style="fill:#231f20"/><rect x="415" y="132.62" width="7.3" height="4.5" style="fill:#231f20"/><rect x="346.3" y="113.02" width="39.5" height="45" style="fill:none"/><rect x="349.2" y="132.62" width="7.3" height="4.5" style="fill:#231f20"/><rect x="362.4" y="132.62" width="7.3" height="4.5" style="fill:#231f20"/><rect x="375.5" y="132.62" width="7.3" height="4.5" style="fill:#231f20"/><rect x="306.9" y="113.02" width="39.5" height="45" style="fill:none"/><rect x="309.8" y="132.62" width="7.3" height="4.5" style="fill:#231f20"/><rect x="322.9" y="132.62" width="7.3" height="4.5" style="fill:#231f20"/><rect x="336" y="132.62" width="7.3" height="4.5" style="fill:#231f20"/><rect x="267.4" y="113.02" width="39.5" height="45" style="fill:none"/><rect x="270.3" y="132.62" width="7.3" height="4.5" style="fill:#231f20"/><rect x="283.4" y="132.62" width="7.3" height="4.5" style="fill:#231f20"/><rect x="296.5" y="132.62" width="7.3" height="4.5" style="fill:#231f20"/><rect x="227.9" y="113.02" width="39.5" height="45" style="fill:none"/><rect x="230.8" y="132.62" width="7.3" height="4.5" style="fill:#231f20"/><rect x="244" y="132.62" width="7.3" height="4.5" style="fill:#231f20"/><rect x="257.1" y="132.62" width="7.3" height="4.5" style="fill:#231f20"/><rect x="188.4" y="113.02" width="39.5" height="45" style="fill:none"/><rect x="191.3" y="132.62" width="7.3" height="4.5" style="fill:#231f20"/><rect x="204.5" y="132.62" width="7.3" height="4.5" style="fill:#231f20"/><rect x="217.6" y="132.62" width="7.3" height="4.5" style="fill:#231f20"/><rect x="148.9" y="113.02" width="39.5" height="45" style="fill:none"/><rect x="151.9" y="132.62" width="7.3" height="4.5" style="fill:#231f20"/><rect x="165" y="132.62" width="7.3" height="4.5" style="fill:#231f20"/><rect x="178.1" y="132.62" width="7.3" height="4.5" style="fill:#231f20"/><rect x="109.5" y="113.02" width="39.5" height="45" style="fill:none"/><rect x="112.4" y="132.62" width="7.3" height="4.5" style="fill:#231f20"/><rect x="125.5" y="132.62" width="7.3" height="4.5" style="fill:#231f20"/><rect x="138.6" y="132.62" width="7.3" height="4.5" style="fill:#231f20"/><rect x="70" y="113.02" width="39.5" height="45" style="fill:none"/><rect x="72.9" y="132.62" width="7.3" height="4.5" style="fill:#231f20"/><rect x="86" y="132.62" width="7.3" height="4.5" style="fill:#231f20"/><rect x="99.2" y="132.62" width="7.3" height="4.5" style="fill:#231f20"/><rect x="45.6" y="35.92" width="4.5" height="7.5" style="fill:#231f20"/><polygon points="45.6 22.42 45.6 29.92 50.1 29.92 50.1 26.92 53.1 26.92 53.1 22.42 45.6 22.42" style="fill:#231f20"/><rect x="59.1" y="22.42" width="7.5" height="4.5" style="fill:#231f20"/><rect x="507.3" y="22.12" width="7.5" height="4.5" style="fill:#231f20"/><polygon points="528.3 22.12 520.8 22.12 520.8 26.62 523.8 26.62 523.8 29.62 528.3 29.62 528.3 22.12" style="fill:#231f20"/><rect x="523.8" y="35.62" width="4.5" height="7.5" style="fill:#231f20"/><rect x="524.1" y="116.12" width="4.5" height="7.5" style="fill:#231f20"/><polygon points="528.6 137.12 528.6 129.62 524.1 129.62 524.1 132.62 521.1 132.62 521.1 137.12 528.6 137.12" style="fill:#231f20"/><rect x="507.7" y="132.62" width="7.5" height="4.5" style="fill:#231f20"/><rect x="59.4" y="132.92" width="7.5" height="4.5" style="fill:#231f20"/><polygon points="45.9 137.42 53.4 137.42 53.4 132.92 50.4 132.92 50.4 129.92 45.9 129.92 45.9 137.42" style="fill:#231f20"/><rect x="45.9" y="116.42" width="4.5" height="7.5" style="fill:#231f20"/></svg>