<svg id="Layer_1" data-name="Layer 1" xmlns="http://www.w3.org/2000/svg" viewBox="0 0 524.2 158.2"><title>text2</title><rect x="10.7" y="5.3" width="504.4" height="150.9" style="fill:none;stroke:#003abc;stroke-miterlimit:10;stroke-width:4px"/><text transform="translate(38.15 58.82)" style="isolation:isolate;font-size:20px;font-family:Menlo;font-weight:700">... The mistakes that happen in our </text><text transform="translate(38.15 83.82)" style="isolation:isolate;font-size:20px;font-family:Menlo;font-weight:700">interactions with digital devices</text><text transform="translate(38.15 108.82)" style="isolation:isolate;font-size:20px;font-family:Menlo;font-weight:700">(both public &amp; personal)</text><rect y="78.3" width="45" height="33.3" style="fill:none"/><rect x="20.9" y="80.7" width="4.5" height="6.2" style="fill:#231f20"/><rect x="20.9" y="91.8" width="4.5" height="6.2" style="fill:#231f20"/><rect x="20.9" y="102.8" width="4.5" height="6.2" style="fill:#231f20"/><rect y="45" width="45" height="33.3" style="fill:none"/><rect x="20.9" y="47.4" width="4.5" height="6.2" style="fill:#231f20"/><rect x="20.9" y="58.5" width="4.5" height="6.2" style="fill:#231f20"/><rect x="20.9" y="69.6" width="4.5" height="6.2" style="fill:#231f20"/><rect x="45" width="39.5" height="45" style="fill:none"/><rect x="74.2" y="20.9" width="7.3" height="4.5" style="fill:#231f20"/><rect x="61.1" y="20.9" width="7.3" height="4.5" style="fill:#231f20"/><rect x="48" y="20.9" width="7.3" height="4.5" style="fill:#231f20"/><rect x="84.5" width="39.5" height="45" style="fill:none"/><rect x="113.7" y="20.9" width="7.3" height="4.5" style="fill:#231f20"/><rect x="100.6" y="20.9" width="7.3" height="4.5" style="fill:#231f20"/><rect x="87.5" y="20.9" width="7.3" height="4.5" style="fill:#231f20"/><rect x="123.9" width="39.5" height="45" style="fill:none"/><rect x="153.2" y="20.9" width="7.3" height="4.5" style="fill:#231f20"/><rect x="140" y="20.9" width="7.3" height="4.5" style="fill:#231f20"/><rect x="126.9" y="20.9" width="7.3" height="4.5" style="fill:#231f20"/><rect x="163.4" width="39.5" height="45" style="fill:none"/><rect x="192.7" y="20.9" width="7.3" height="4.5" style="fill:#231f20"/><rect x="179.5" y="20.9" width="7.3" height="4.5" style="fill:#231f20"/><rect x="166.4" y="20.9" width="7.3" height="4.5" style="fill:#231f20"/><rect x="202.9" width="39.5" height="45" style="fill:none"/><rect x="232.1" y="20.9" width="7.3" height="4.5" style="fill:#231f20"/><rect x="219" y="20.9" width="7.3" height="4.5" style="fill:#231f20"/><rect x="205.9" y="20.9" width="7.3" height="4.5" style="fill:#231f20"/><rect x="242.4" width="39.5" height="45" style="fill:none"/><rect x="271.6" y="20.9" width="7.3" height="4.5" style="fill:#231f20"/><rect x="258.5" y="20.9" width="7.3" height="4.5" style="fill:#231f20"/><rect x="245.4" y="20.9" width="7.3" height="4.5" style="fill:#231f20"/><rect x="281.9" width="39.5" height="45" style="fill:none"/><rect x="311.1" y="20.9" width="7.3" height="4.5" style="fill:#231f20"/><rect x="298" y="20.9" width="7.3" height="4.5" style="fill:#231f20"/><rect x="284.9" y="20.9" width="7.3" height="4.5" style="fill:#231f20"/><rect x="321.3" width="39.5" height="45" style="fill:none"/><rect x="350.6" y="20.9" width="7.3" height="4.5" style="fill:#231f20"/><rect x="337.4" y="20.9" width="7.3" height="4.5" style="fill:#231f20"/><rect x="324.3" y="20.9" width="7.3" height="4.5" style="fill:#231f20"/><rect x="360.8" width="39.5" height="45" style="fill:none"/><rect x="390" y="20.9" width="7.3" height="4.5" style="fill:#231f20"/><rect x="376.9" y="20.9" width="7.3" height="4.5" style="fill:#231f20"/><rect x="363.8" y="20.9" width="7.3" height="4.5" style="fill:#231f20"/><rect x="400.3" width="39.5" height="45" style="fill:none"/><rect x="429.5" y="20.9" width="7.3" height="4.5" style="fill:#231f20"/><rect x="416.4" y="20.9" width="7.3" height="4.5" style="fill:#231f20"/><rect x="403.3" y="20.9" width="7.3" height="4.5" style="fill:#231f20"/><rect x="439.8" width="39.5" height="45" style="fill:none"/><rect x="469" y="20.9" width="7.3" height="4.5" style="fill:#231f20"/><rect x="455.9" y="20.9" width="7.3" height="4.5" style="fill:#231f20"/><rect x="442.8" y="20.9" width="7.3" height="4.5" style="fill:#231f20"/><rect x="479.2" y="45" width="45" height="33.3" style="fill:none"/><rect x="498.8" y="69.6" width="4.5" height="6.2" style="fill:#231f20"/><rect x="498.8" y="58.6" width="4.5" height="6.2" style="fill:#231f20"/><rect x="498.8" y="47.5" width="4.5" height="6.2" style="fill:#231f20"/><rect x="479.2" y="78.3" width="45" height="33.3" style="fill:none"/><rect x="498.8" y="102.9" width="4.5" height="6.2" style="fill:#231f20"/><rect x="498.8" y="91.8" width="4.5" height="6.2" style="fill:#231f20"/><rect x="498.8" y="80.8" width="4.5" height="6.2" style="fill:#231f20"/><rect x="439.8" y="111.5" width="39.5" height="45" style="fill:none"/><rect x="442.7" y="131.1" width="7.3" height="4.5" style="fill:#231f20"/><rect x="455.8" y="131.1" width="7.3" height="4.5" style="fill:#231f20"/><rect x="468.9" y="131.1" width="7.3" height="4.5" style="fill:#231f20"/><rect x="400.3" y="111.5" width="39.5" height="45" style="fill:none"/><rect x="403.2" y="131.1" width="7.3" height="4.5" style="fill:#231f20"/><rect x="416.4" y="131.1" width="7.3" height="4.5" style="fill:#231f20"/><rect x="429.5" y="131.1" width="7.3" height="4.5" style="fill:#231f20"/><rect x="360.8" y="111.5" width="39.5" height="45" style="fill:none"/><rect x="363.7" y="131.1" width="7.3" height="4.5" style="fill:#231f20"/><rect x="376.9" y="131.1" width="7.3" height="4.5" style="fill:#231f20"/><rect x="390" y="131.1" width="7.3" height="4.5" style="fill:#231f20"/><rect x="321.3" y="111.5" width="39.5" height="45" style="fill:none"/><rect x="324.2" y="131.1" width="7.3" height="4.5" style="fill:#231f20"/><rect x="337.4" y="131.1" width="7.3" height="4.5" style="fill:#231f20"/><rect x="350.5" y="131.1" width="7.3" height="4.5" style="fill:#231f20"/><rect x="281.9" y="111.5" width="39.5" height="45" style="fill:none"/><rect x="284.8" y="131.1" width="7.3" height="4.5" style="fill:#231f20"/><rect x="297.9" y="131.1" width="7.3" height="4.5" style="fill:#231f20"/><rect x="311" y="131.1" width="7.3" height="4.5" style="fill:#231f20"/><rect x="242.4" y="111.5" width="39.5" height="45" style="fill:none"/><rect x="245.3" y="131.1" width="7.3" height="4.5" style="fill:#231f20"/><rect x="258.4" y="131.1" width="7.3" height="4.5" style="fill:#231f20"/><rect x="271.5" y="131.1" width="7.3" height="4.5" style="fill:#231f20"/><rect x="202.9" y="111.5" width="39.5" height="45" style="fill:none"/><rect x="205.8" y="131.1" width="7.3" height="4.5" style="fill:#231f20"/><rect x="219" y="131.1" width="7.3" height="4.5" style="fill:#231f20"/><rect x="232.1" y="131.1" width="7.3" height="4.5" style="fill:#231f20"/><rect x="163.4" y="111.5" width="39.5" height="45" style="fill:none"/><rect x="166.3" y="131.1" width="7.3" height="4.5" style="fill:#231f20"/><rect x="179.5" y="131.1" width="7.3" height="4.5" style="fill:#231f20"/><rect x="192.6" y="131.1" width="7.3" height="4.5" style="fill:#231f20"/><rect x="123.9" y="111.5" width="39.5" height="45" style="fill:none"/><rect x="126.9" y="131.1" width="7.3" height="4.5" style="fill:#231f20"/><rect x="140" y="131.1" width="7.3" height="4.5" style="fill:#231f20"/><rect x="153.1" y="131.1" width="7.3" height="4.5" style="fill:#231f20"/><rect x="84.5" y="111.5" width="39.5" height="45" style="fill:none"/><rect x="87.4" y="131.1" width="7.3" height="4.5" style="fill:#231f20"/><rect x="100.5" y="131.1" width="7.3" height="4.5" style="fill:#231f20"/><rect x="113.6" y="131.1" width="7.3" height="4.5" style="fill:#231f20"/><rect x="45" y="111.5" width="39.5" height="45" style="fill:none"/><rect x="47.9" y="131.1" width="7.3" height="4.5" style="fill:#231f20"/><rect x="61" y="131.1" width="7.3" height="4.5" style="fill:#231f20"/><rect x="74.2" y="131.1" width="7.3" height="4.5" style="fill:#231f20"/><rect x="20.6" y="34.4" width="4.5" height="7.5" style="fill:#231f20"/><polygon points="20.6 20.9 20.6 28.4 25.1 28.4 25.1 25.4 28.1 25.4 28.1 20.9 20.6 20.9" style="fill:#231f20"/><rect x="34.1" y="20.9" width="7.5" height="4.5" style="fill:#231f20"/><rect x="482.3" y="20.6" width="7.5" height="4.5" style="fill:#231f20"/><polygon points="503.3 20.6 495.8 20.6 495.8 25.1 498.8 25.1 498.8 28.1 503.3 28.1 503.3 20.6" style="fill:#231f20"/><rect x="498.8" y="34.1" width="4.5" height="7.5" style="fill:#231f20"/><rect x="499.1" y="114.6" width="4.5" height="7.5" style="fill:#231f20"/><polygon points="503.6 135.6 503.6 128.1 499.1 128.1 499.1 131.1 496.1 131.1 496.1 135.6 503.6 135.6" style="fill:#231f20"/><rect x="482.7" y="131.1" width="7.5" height="4.5" style="fill:#231f20"/><rect x="34.4" y="131.4" width="7.5" height="4.5" style="fill:#231f20"/><polygon points="20.9 135.9 28.4 135.9 28.4 131.4 25.4 131.4 25.4 128.4 20.9 128.4 20.9 135.9" style="fill:#231f20"/><rect x="20.9" y="114.9" width="4.5" height="7.5" style="fill:#231f20"/></svg>