<svg id="Layer_1" data-name="Layer 1" xmlns="http://www.w3.org/2000/svg" viewBox="0 0 475.33 318.94"><title>text1</title><text transform="translate(43.93 76.3)" style="font-size:20px;font-family:Menlo">What do we call the accidents <tspan x="0" y="25">and mistakes that happen on, </tspan><tspan x="0" y="50">over, because of and through our </tspan><tspan x="0" y="75">digital devices ...</tspan></text><rect x="6.82" y="107.25" width="45" height="48" style="fill:none"/><rect x="27.72" y="110.79" width="4.5" height="8.91" style="fill:#231f20"/><rect x="27.72" y="126.77" width="4.5" height="8.91" style="fill:#231f20"/><rect x="27.72" y="142.7" width="4.5" height="8.91" style="fill:#231f20"/><rect x="6.82" y="59.25" width="45" height="48" style="fill:none"/><rect x="27.72" y="62.8" width="4.5" height="8.91" style="fill:#231f20"/><rect x="27.72" y="78.78" width="4.5" height="8.91" style="fill:#231f20"/><rect x="27.72" y="94.7" width="4.5" height="8.91" style="fill:#231f20"/><rect x="51.81" y="14.25" width="40.93" height="45" style="fill:none"/><rect x="82.12" y="35.16" width="7.6" height="4.5" style="fill:#231f20"/><rect x="68.49" y="35.16" width="7.6" height="4.5" style="fill:#231f20"/><rect x="54.91" y="35.16" width="7.6" height="4.5" style="fill:#231f20"/><rect x="92.74" y="14.25" width="40.93" height="45" style="fill:none"/><rect x="123.06" y="35.16" width="7.6" height="4.5" style="fill:#231f20"/><rect x="109.43" y="35.16" width="7.6" height="4.5" style="fill:#231f20"/><rect x="95.85" y="35.16" width="7.6" height="4.5" style="fill:#231f20"/><rect x="133.68" y="14.25" width="40.93" height="45" style="fill:none"/><rect x="163.99" y="35.16" width="7.6" height="4.5" style="fill:#231f20"/><rect x="150.36" y="35.16" width="7.6" height="4.5" style="fill:#231f20"/><rect x="136.78" y="35.16" width="7.6" height="4.5" style="fill:#231f20"/><rect x="174.61" y="14.25" width="40.93" height="45" style="fill:none"/><rect x="204.92" y="35.16" width="7.6" height="4.5" style="fill:#231f20"/><rect x="191.3" y="35.16" width="7.6" height="4.5" style="fill:#231f20"/><rect x="177.71" y="35.16" width="7.6" height="4.5" style="fill:#231f20"/><rect x="215.54" y="14.25" width="40.93" height="45" style="fill:none"/><rect x="245.86" y="35.16" width="7.6" height="4.5" style="fill:#231f20"/><rect x="232.23" y="35.16" width="7.6" height="4.5" style="fill:#231f20"/><rect x="218.65" y="35.16" width="7.6" height="4.5" style="fill:#231f20"/><rect x="256.48" y="14.25" width="40.93" height="45" style="fill:none"/><rect x="286.79" y="35.16" width="7.6" height="4.5" style="fill:#231f20"/><rect x="273.16" y="35.16" width="7.6" height="4.5" style="fill:#231f20"/><rect x="259.58" y="35.16" width="7.6" height="4.5" style="fill:#231f20"/><rect x="297.41" y="14.25" width="40.93" height="45" style="fill:none"/><rect x="327.72" y="35.16" width="7.6" height="4.5" style="fill:#231f20"/><rect x="314.1" y="35.16" width="7.6" height="4.5" style="fill:#231f20"/><rect x="300.51" y="35.16" width="7.6" height="4.5" style="fill:#231f20"/><rect x="338.35" y="14.25" width="40.93" height="45" style="fill:none"/><rect x="368.66" y="35.16" width="7.6" height="4.5" style="fill:#231f20"/><rect x="355.03" y="35.16" width="7.6" height="4.5" style="fill:#231f20"/><rect x="341.45" y="35.16" width="7.6" height="4.5" style="fill:#231f20"/><rect x="379.28" y="14.25" width="40.93" height="45" style="fill:none"/><rect x="409.59" y="35.16" width="7.6" height="4.5" style="fill:#231f20"/><rect x="395.96" y="35.16" width="7.6" height="4.5" style="fill:#231f20"/><rect x="382.38" y="35.16" width="7.6" height="4.5" style="fill:#231f20"/><rect x="420.21" y="59.25" width="45" height="48" style="fill:none"/><rect x="439.8" y="94.79" width="4.5" height="8.91" style="fill:#231f20"/><rect x="439.8" y="78.81" width="4.5" height="8.91" style="fill:#231f20"/><rect x="439.8" y="62.89" width="4.5" height="8.91" style="fill:#231f20"/><rect x="420.21" y="107.25" width="45" height="48" style="fill:none"/><rect x="439.8" y="142.79" width="4.5" height="8.91" style="fill:#231f20"/><rect x="439.8" y="126.81" width="4.5" height="8.91" style="fill:#231f20"/><rect x="439.8" y="110.88" width="4.5" height="8.91" style="fill:#231f20"/><rect x="379.28" y="155.24" width="40.93" height="45" style="fill:none"/><rect x="382.3" y="174.83" width="7.6" height="4.5" style="fill:#231f20"/><rect x="395.93" y="174.83" width="7.6" height="4.5" style="fill:#231f20"/><rect x="409.51" y="174.83" width="7.6" height="4.5" style="fill:#231f20"/><rect x="338.35" y="155.24" width="40.93" height="45" style="fill:none"/><rect x="341.37" y="174.83" width="7.6" height="4.5" style="fill:#231f20"/><rect x="355" y="174.83" width="7.6" height="4.5" style="fill:#231f20"/><rect x="368.58" y="174.83" width="7.6" height="4.5" style="fill:#231f20"/><rect x="297.41" y="155.24" width="40.93" height="45" style="fill:none"/><rect x="300.44" y="174.83" width="7.6" height="4.5" style="fill:#231f20"/><rect x="314.06" y="174.83" width="7.6" height="4.5" style="fill:#231f20"/><rect x="327.65" y="174.83" width="7.6" height="4.5" style="fill:#231f20"/><rect x="256.48" y="155.24" width="40.93" height="45" style="fill:none"/><rect x="259.5" y="174.83" width="7.6" height="4.5" style="fill:#231f20"/><rect x="273.13" y="174.83" width="7.6" height="4.5" style="fill:#231f20"/><rect x="286.71" y="174.83" width="7.6" height="4.5" style="fill:#231f20"/><rect x="215.54" y="155.24" width="40.93" height="45" style="fill:none"/><rect x="218.57" y="174.83" width="7.6" height="4.5" style="fill:#231f20"/><rect x="232.2" y="174.83" width="7.6" height="4.5" style="fill:#231f20"/><rect x="245.78" y="174.83" width="7.6" height="4.5" style="fill:#231f20"/><rect x="174.61" y="155.24" width="40.93" height="45" style="fill:none"/><rect x="177.64" y="174.83" width="7.6" height="4.5" style="fill:#231f20"/><rect x="191.26" y="174.83" width="7.6" height="4.5" style="fill:#231f20"/><rect x="204.85" y="174.83" width="7.6" height="4.5" style="fill:#231f20"/><rect x="133.68" y="155.24" width="40.93" height="45" style="fill:none"/><rect x="136.7" y="174.83" width="7.6" height="4.5" style="fill:#231f20"/><rect x="150.33" y="174.83" width="7.6" height="4.5" style="fill:#231f20"/><rect x="163.91" y="174.83" width="7.6" height="4.5" style="fill:#231f20"/><rect x="92.74" y="155.24" width="40.93" height="45" style="fill:none"/><rect x="95.77" y="174.83" width="7.6" height="4.5" style="fill:#231f20"/><rect x="109.4" y="174.83" width="7.6" height="4.5" style="fill:#231f20"/><rect x="122.98" y="174.83" width="7.6" height="4.5" style="fill:#231f20"/><rect x="51.81" y="155.24" width="40.93" height="45" style="fill:none"/><rect x="54.84" y="174.83" width="7.6" height="4.5" style="fill:#231f20"/><rect x="68.46" y="174.83" width="7.6" height="4.5" style="fill:#231f20"/><rect x="82.04" y="174.83" width="7.6" height="4.5" style="fill:#231f20"/><rect x="27.4" y="48.66" width="4.52" height="7.5" style="fill:#231f20"/><polygon points="27.4 35.16 27.4 42.66 31.92 42.66 31.92 39.66 34.9 39.66 34.9 35.16 27.4 35.16" style="fill:#231f20;fill-rule:evenodd"/><rect x="40.9" y="35.16" width="7.5" height="4.5" style="fill:#231f20"/><rect x="423.3" y="34.84" width="7.5" height="4.52" style="fill:#231f20"/><polygon points="444.31 34.84 436.81 34.84 436.81 39.36 439.81 39.36 439.81 42.34 444.31 42.34 444.31 34.84" style="fill:#231f20;fill-rule:evenodd"/><rect x="439.81" y="48.34" width="4.5" height="7.5" style="fill:#231f20"/><rect x="440.1" y="158.33" width="4.52" height="7.5" style="fill:#231f20"/><polygon points="444.62 179.34 444.62 171.84 440.1 171.84 440.1 174.84 437.12 174.84 437.12 179.34 444.62 179.34" style="fill:#231f20;fill-rule:evenodd"/><rect x="423.62" y="174.84" width="7.5" height="4.5" style="fill:#231f20"/><rect x="41.22" y="175.13" width="7.5" height="4.52" style="fill:#231f20"/><polygon points="27.72 179.65 35.22 179.65 35.22 175.13 32.22 175.13 32.22 172.15 27.72 172.15 27.72 179.65" style="fill:#231f20;fill-rule:evenodd"/><rect x="27.72" y="158.65" width="4.5" height="7.5" style="fill:#231f20"/><rect x="1.5" y="1.5" width="472.33" height="211" style="fill:none;stroke:#0716d3;stroke-miterlimit:10;stroke-width:3px"/></svg>