<?xml version="1.0" encoding="utf-8"?>
<!-- Generator: Adobe Illustrator 19.2.0, SVG Export Plug-In . SVG Version: 6.00 Build 0)  -->
<svg version="1.0" id="Layer_1" xmlns="http://www.w3.org/2000/svg" xmlns:xlink="http://www.w3.org/1999/xlink" x="0px" y="0px"
	 viewBox="0 0 525 287" enable-background="new 0 0 525 287" xml:space="preserve">
<title>text1</title>
<text transform="matrix(1 0 0 1 67.93 106.3)" font-family="'Menlo-Bold'" font-size="20px">What do we call the accidents </text>
<text transform="matrix(1 0 0 1 67.93 131.3)" font-family="'Menlo-Bold'" font-size="20px">and mistakes that happen on, </text>
<text transform="matrix(1 0 0 1 67.93 156.3)" font-family="'Menlo-Bold'" font-size="20px">over, because of and through our </text>
<text transform="matrix(1 0 0 1 67.93 181.3)" font-family="'Menlo-Bold'" font-size="20px">digital devices ...</text>
<rect x="30.8" y="137.2" fill="none" width="45" height="48"/>
<rect x="51.7" y="140.8" fill="#231F20" width="4.5" height="8.9"/>
<rect x="51.7" y="156.8" fill="#231F20" width="4.5" height="8.9"/>
<rect x="51.7" y="172.7" fill="#231F20" width="4.5" height="8.9"/>
<rect x="30.8" y="89.2" fill="none" width="45" height="48"/>
<rect x="51.7" y="92.8" fill="#231F20" width="4.5" height="8.9"/>
<rect x="51.7" y="108.8" fill="#231F20" width="4.5" height="8.9"/>
<rect x="51.7" y="124.7" fill="#231F20" width="4.5" height="8.9"/>
<rect x="75.8" y="44.2" fill="none" width="40.9" height="45"/>
<rect x="106.1" y="65.2" fill="#231F20" width="7.6" height="4.5"/>
<rect x="92.5" y="65.2" fill="#231F20" width="7.6" height="4.5"/>
<rect x="78.9" y="65.2" fill="#231F20" width="7.6" height="4.5"/>
<rect x="116.7" y="44.2" fill="none" width="40.9" height="45"/>
<rect x="147.1" y="65.2" fill="#231F20" width="7.6" height="4.5"/>
<rect x="133.4" y="65.2" fill="#231F20" width="7.6" height="4.5"/>
<rect x="119.8" y="65.2" fill="#231F20" width="7.6" height="4.5"/>
<rect x="157.7" y="44.2" fill="none" width="40.9" height="45"/>
<rect x="188" y="65.2" fill="#231F20" width="7.6" height="4.5"/>
<rect x="174.4" y="65.2" fill="#231F20" width="7.6" height="4.5"/>
<rect x="160.8" y="65.2" fill="#231F20" width="7.6" height="4.5"/>
<rect x="198.6" y="44.2" fill="none" width="40.9" height="45"/>
<rect x="228.9" y="65.2" fill="#231F20" width="7.6" height="4.5"/>
<rect x="215.3" y="65.2" fill="#231F20" width="7.6" height="4.5"/>
<rect x="201.7" y="65.2" fill="#231F20" width="7.6" height="4.5"/>
<rect x="239.5" y="44.2" fill="none" width="40.9" height="45"/>
<rect x="269.9" y="65.2" fill="#231F20" width="7.6" height="4.5"/>
<rect x="256.2" y="65.2" fill="#231F20" width="7.6" height="4.5"/>
<rect x="242.6" y="65.2" fill="#231F20" width="7.6" height="4.5"/>
<rect x="280.5" y="44.2" fill="none" width="40.9" height="45"/>
<rect x="310.8" y="65.2" fill="#231F20" width="7.6" height="4.5"/>
<rect x="297.2" y="65.2" fill="#231F20" width="7.6" height="4.5"/>
<rect x="283.6" y="65.2" fill="#231F20" width="7.6" height="4.5"/>
<rect x="321.4" y="44.2" fill="none" width="40.9" height="45"/>
<rect x="351.7" y="65.2" fill="#231F20" width="7.6" height="4.5"/>
<rect x="338.1" y="65.2" fill="#231F20" width="7.6" height="4.5"/>
<rect x="324.5" y="65.2" fill="#231F20" width="7.6" height="4.5"/>
<rect x="362.4" y="44.2" fill="none" width="40.9" height="45"/>
<rect x="392.7" y="65.2" fill="#231F20" width="7.6" height="4.5"/>
<rect x="379" y="65.2" fill="#231F20" width="7.6" height="4.5"/>
<rect x="365.5" y="65.2" fill="#231F20" width="7.6" height="4.5"/>
<rect x="403.3" y="44.2" fill="none" width="40.9" height="45"/>
<rect x="433.6" y="65.2" fill="#231F20" width="7.6" height="4.5"/>
<rect x="420" y="65.2" fill="#231F20" width="7.6" height="4.5"/>
<rect x="406.4" y="65.2" fill="#231F20" width="7.6" height="4.5"/>
<rect x="444.2" y="89.2" fill="none" width="45" height="48"/>
<rect x="463.8" y="124.8" fill="#231F20" width="4.5" height="8.9"/>
<rect x="463.8" y="108.8" fill="#231F20" width="4.5" height="8.9"/>
<rect x="463.8" y="92.9" fill="#231F20" width="4.5" height="8.9"/>
<rect x="444.2" y="137.2" fill="none" width="45" height="48"/>
<rect x="463.8" y="172.8" fill="#231F20" width="4.5" height="8.9"/>
<rect x="463.8" y="156.8" fill="#231F20" width="4.5" height="8.9"/>
<rect x="463.8" y="140.9" fill="#231F20" width="4.5" height="8.9"/>
<rect x="403.3" y="185.2" fill="none" width="40.9" height="45"/>
<rect x="406.3" y="204.8" fill="#231F20" width="7.6" height="4.5"/>
<rect x="419.9" y="204.8" fill="#231F20" width="7.6" height="4.5"/>
<rect x="433.5" y="204.8" fill="#231F20" width="7.6" height="4.5"/>
<rect x="362.4" y="185.2" fill="none" width="40.9" height="45"/>
<rect x="365.4" y="204.8" fill="#231F20" width="7.6" height="4.5"/>
<rect x="379" y="204.8" fill="#231F20" width="7.6" height="4.5"/>
<rect x="392.6" y="204.8" fill="#231F20" width="7.6" height="4.5"/>
<rect x="321.4" y="185.2" fill="none" width="40.9" height="45"/>
<rect x="324.4" y="204.8" fill="#231F20" width="7.6" height="4.5"/>
<rect x="338.1" y="204.8" fill="#231F20" width="7.6" height="4.5"/>
<rect x="351.6" y="204.8" fill="#231F20" width="7.6" height="4.5"/>
<rect x="280.5" y="185.2" fill="none" width="40.9" height="45"/>
<rect x="283.5" y="204.8" fill="#231F20" width="7.6" height="4.5"/>
<rect x="297.1" y="204.8" fill="#231F20" width="7.6" height="4.5"/>
<rect x="310.7" y="204.8" fill="#231F20" width="7.6" height="4.5"/>
<rect x="239.5" y="185.2" fill="none" width="40.9" height="45"/>
<rect x="242.6" y="204.8" fill="#231F20" width="7.6" height="4.5"/>
<rect x="256.2" y="204.8" fill="#231F20" width="7.6" height="4.5"/>
<rect x="269.8" y="204.8" fill="#231F20" width="7.6" height="4.5"/>
<rect x="198.6" y="185.2" fill="none" width="40.9" height="45"/>
<rect x="201.6" y="204.8" fill="#231F20" width="7.6" height="4.5"/>
<rect x="215.3" y="204.8" fill="#231F20" width="7.6" height="4.5"/>
<rect x="228.9" y="204.8" fill="#231F20" width="7.6" height="4.5"/>
<rect x="157.7" y="185.2" fill="none" width="40.9" height="45"/>
<rect x="160.7" y="204.8" fill="#231F20" width="7.6" height="4.5"/>
<rect x="174.3" y="204.8" fill="#231F20" width="7.6" height="4.5"/>
<rect x="187.9" y="204.8" fill="#231F20" width="7.6" height="4.5"/>
<rect x="116.7" y="185.2" fill="none" width="40.9" height="45"/>
<rect x="119.8" y="204.8" fill="#231F20" width="7.6" height="4.5"/>
<rect x="133.4" y="204.8" fill="#231F20" width="7.6" height="4.5"/>
<rect x="147" y="204.8" fill="#231F20" width="7.6" height="4.5"/>
<rect x="75.8" y="185.2" fill="none" width="40.9" height="45"/>
<rect x="78.8" y="204.8" fill="#231F20" width="7.6" height="4.5"/>
<rect x="92.5" y="204.8" fill="#231F20" width="7.6" height="4.5"/>
<rect x="106" y="204.8" fill="#231F20" width="7.6" height="4.5"/>
<rect x="51.4" y="78.7" fill="#231F20" width="4.5" height="7.5"/>
<polygon fill="#231F20" points="51.4,65.2 51.4,72.7 55.9,72.7 55.9,69.7 58.9,69.7 58.9,65.2 "/>
<rect x="64.9" y="65.2" fill="#231F20" width="7.5" height="4.5"/>
<rect x="447.3" y="64.8" fill="#231F20" width="7.5" height="4.5"/>
<polygon fill="#231F20" points="468.3,64.8 460.8,64.8 460.8,69.4 463.8,69.4 463.8,72.3 468.3,72.3 "/>
<rect x="463.8" y="78.3" fill="#231F20" width="4.5" height="7.5"/>
<rect x="464.1" y="188.3" fill="#231F20" width="4.5" height="7.5"/>
<polygon fill="#231F20" points="468.6,209.3 468.6,201.8 464.1,201.8 464.1,204.8 461.1,204.8 461.1,209.3 "/>
<rect x="447.6" y="204.8" fill="#231F20" width="7.5" height="4.5"/>
<rect x="65.2" y="205.1" fill="#231F20" width="7.5" height="4.5"/>
<polygon fill="#231F20" points="51.7,209.6 59.2,209.6 59.2,205.1 56.2,205.1 56.2,202.1 51.7,202.1 "/>
<rect x="51.7" y="188.6" fill="#231F20" width="4.5" height="7.5"/>
<rect x="25.5" y="44.2" fill="none" stroke="#ABC1FA" stroke-width="5" stroke-miterlimit="10" width="472.3" height="186"/>
</svg>
