<svg id="Layer_1" data-name="Layer 1" xmlns="http://www.w3.org/2000/svg" viewBox="0 0 180.81 21.11"><defs><style>.cls-1,.cls-2{fill:#ab6868;stroke:#ab6868;stroke-miterlimit:10;}.cls-2{stroke-width:0.5px;}</style></defs><title>title</title><path class="cls-1" d="M31.68,37.16c-0.18.68-.26,1-0.44,1.68a6.56,6.56,0,0,0-2.14-.53,0.9,0.9,0,0,0-1,.51,6.16,6.16,0,0,0-.1,2.25V41.3c1,0.21,2,.31,3,0.49v1.73c-1-.23-2-0.36-3-0.63V52c-1-.1-1-0.15-2-0.26V42.58c-1-.21-2-0.32-3-0.56V40.63c1,0.18,2,.27,3,0.43V40.67a5.18,5.18,0,0,1,.66-3.14,3,3,0,0,1,2.49-.93A6.76,6.76,0,0,1,31.68,37.16Z" transform="translate(-22.49 -35.28)"/><path class="cls-1" d="M42,53.68c-1-.06-1-0.09-2-0.15V44.7c-1-.14-2-0.22-3-0.38V42.41c2,0.19,3,.28,5,0.43V53.68ZM41.16,36.61a1,1,0,0,1,.81.52,2.23,2.23,0,0,1,.33,1.23A2.12,2.12,0,0,1,42,39.58a0.9,0.9,0,0,1-.81.45,1,1,0,0,1-.78-0.54A2.12,2.12,0,0,1,40,38.3a2.08,2.08,0,0,1,.34-1.18A1,1,0,0,1,41.16,36.61Z" transform="translate(-22.49 -35.28)"/><path class="cls-1" d="M51,45.55c0-.73.89-1.33,1.53-1.79a3.24,3.24,0,0,1,2-.66c1.3,0,2.32.9,3,2.48a14,14,0,0,1,1.09,5.77c0,2.23-.39,2.08-1.16,2.59a5.21,5.21,0,0,1-3.1.62,8.29,8.29,0,0,1-2-.29c-0.61-.17-1.45-0.4-1.45-0.7V54.3c-1,0-1-.05-2-0.09V37h2v8.5Zm0,2.38v4.71c0,0.37.76,0.66,1.3,0.9a4.68,4.68,0,0,0,1.67.38,3.16,3.16,0,0,0,2.16-.53c0.53-.42.8-0.31,0.8-1.94a11,11,0,0,0-.76-4.32A2.56,2.56,0,0,0,54,45.29C52.83,45.24,52,46.18,51,47.93Z" transform="translate(-22.49 -35.28)"/><path class="cls-1" d="M72,51.29c-4,.2-4.85.27-7.92,0.33,0,1.58.25,1.52,1,2a4.9,4.9,0,0,0,2.64.61,16.14,16.14,0,0,0,3.12-.31c0.12,0.28.16,0.42,0.28,0.65a16.92,16.92,0,0,1-3.47.29,9.2,9.2,0,0,1-4-.7c-1-.5-1.53-0.29-1.53-2.58a11.69,11.69,0,0,1,1.37-5.85A4.13,4.13,0,0,1,67,43.27a4.2,4.2,0,0,1,3.47,2.21A10.13,10.13,0,0,1,72,50.67v0.62Zm-2.31-1.57a5.35,5.35,0,0,0-.82-3A2.28,2.28,0,0,0,67,45.49a2.58,2.58,0,0,0-2.15,1.27,6,6,0,0,0-1,3.11C66.24,49.84,67.38,49.81,69.68,49.72Z" transform="translate(-22.49 -35.28)"/><path class="cls-1" d="M84.55,43.64c-0.27.94-.41,1.39-0.68,2.25A4.33,4.33,0,0,0,82,45.4a2.43,2.43,0,0,0-1.45.64,6,6,0,0,0-1.11,1.64A2.32,2.32,0,0,0,79,48.81v5.77l-2,0V43.54l2,0v3.19c1-2.28,1.86-3.65,3.29-3.7A4,4,0,0,1,84.55,43.64Z" transform="translate(-22.49 -35.28)"/><path class="cls-2" d="M106.44,40.6a4.15,4.15,0,0,1,3.67,1.25,5.67,5.67,0,0,1,1.36,4.06,7.12,7.12,0,0,1-1.36,4.45,5.07,5.07,0,0,1-3.67,2,4.51,4.51,0,0,1-3.68-1,4.66,4.66,0,0,1-1.36-3.76,8.29,8.29,0,0,1,1.36-4.75A4.94,4.94,0,0,1,106.44,40.6Zm0,10.39a3.23,3.23,0,0,0,2.41-1.56,5.84,5.84,0,0,0,.88-3.22,5,5,0,0,0-.87-3.08,2.43,2.43,0,0,0-2.42-1A3.2,3.2,0,0,0,104,43.84a6.78,6.78,0,0,0-.86,3.48,4.2,4.2,0,0,0,.87,2.84A2.5,2.5,0,0,0,106.44,51Z" transform="translate(-22.49 -35.28)"/><path class="cls-2" d="M119.65,39.16a4.64,4.64,0,0,1,3.67.91,4.44,4.44,0,0,1,1.36,3.64,9,9,0,0,1-1.36,4.89,4.86,4.86,0,0,1-3.67,2.32A4.07,4.07,0,0,1,116,49.58a6.14,6.14,0,0,1-1.36-4.2A6.69,6.69,0,0,1,116,41,5.19,5.19,0,0,1,119.65,39.16Zm0,10.11a3.19,3.19,0,0,0,2.41-1.77,7.17,7.17,0,0,0,.88-3.48,4.08,4.08,0,0,0-.87-2.83,2.57,2.57,0,0,0-2.42-.76,3.27,3.27,0,0,0-2.42,1.46,5.66,5.66,0,0,0-.86,3.23,5.29,5.29,0,0,0,.87,3.11A2.39,2.39,0,0,0,119.65,49.27Z" transform="translate(-22.49 -35.28)"/><path class="cls-1" d="M130,39.26a18.46,18.46,0,0,0,1.63-1.06,6.92,6.92,0,0,1,2.07-.51,3.94,3.94,0,0,1,3.07.69c0.73,0.63,1.12,1.62,1.12,3.29a12.31,12.31,0,0,1-1.15,5.17c-0.77,1.61-1.8,2.55-3.11,2.67a3.29,3.29,0,0,1-2.07-.52c-0.61-.4-0.56-0.95-1.56-1.62v8.5h-1V38.4c0-.07,1-0.11,1-0.18v1Zm0,1.33v4.62c1,0.68.86,1.26,1.4,1.71a2.29,2.29,0,0,0,1.73.6,2.91,2.91,0,0,0,2.18-1.88,8.71,8.71,0,0,0,.82-3.67,3.78,3.78,0,0,0-.76-2.66,2.55,2.55,0,0,0-2.25-.64A4.59,4.59,0,0,0,130,40.59Z" transform="translate(-22.49 -35.28)"/><path class="cls-2" d="M149.22,37.6a14,14,0,0,0-2.65-.17,6.56,6.56,0,0,0-2.16.36,1,1,0,0,0-.79.88,0.78,0.78,0,0,0,.37.63,3.76,3.76,0,0,0,1.46.45L147,40a6.78,6.78,0,0,1,1.8.51,2.3,2.3,0,0,1,1,1.11,4.13,4.13,0,0,1,.35,1.8,5.25,5.25,0,0,1-1.34,3.66,4.62,4.62,0,0,1-3.42,1.51,6.31,6.31,0,0,1-3.41-.8c0.13-.87.19-1.29,0.32-2.08a5.89,5.89,0,0,0,3,.76,3.5,3.5,0,0,0,2.27-.83,2.5,2.5,0,0,0,.88-1.94,2,2,0,0,0-.44-1.3,4,4,0,0,0-2-1c-0.87-.22-1.5-0.36-1.91-0.44a3.84,3.84,0,0,1-1.14-.45,2.3,2.3,0,0,1-.8-0.75,1.76,1.76,0,0,1-.27-0.95,1.73,1.73,0,0,1,1.27-1.64,9.89,9.89,0,0,1,3.36-.52,23.34,23.34,0,0,1,3,.14A7.32,7.32,0,0,0,149.22,37.6Z" transform="translate(-22.49 -35.28)"/><path class="cls-1" d="M163.7,47.28a6.14,6.14,0,0,1-3.52,1.22c-2,0-3.19-1.88-3.19-4.9V37.35l-2,0V36.7h2V35.78h2v0.91l4,0v0.64c-2,0-2,0-4,0v5.61a5.05,5.05,0,0,0,.46,2.32,1.4,1.4,0,0,0,1.23.88,4.73,4.73,0,0,0,2.72-.92C163.52,46,163.58,46.44,163.7,47.28Z" transform="translate(-22.49 -35.28)"/><path class="cls-1" d="M174,48.48c-1,0-1-.05-2-0.08V37.62c-1-.06-2-0.09-3-0.14V36.83c2,0.06,3,.09,5,0.19V48.48Zm-0.81-12.93a3.06,3.06,0,0,1,.81.09,0.36,0.36,0,0,1,.33.24,0.37,0.37,0,0,1-.33.26,2.46,2.46,0,0,1-.81.09,2.52,2.52,0,0,1-.78-0.14,0.41,0.41,0,0,1-.34-0.25,0.36,0.36,0,0,1,.34-0.21A3.27,3.27,0,0,1,173.18,35.55Z" transform="translate(-22.49 -35.28)"/><path class="cls-2" d="M190,49.28a5.68,5.68,0,0,1-3.21.6,5.43,5.43,0,0,1-4.22-2.81A15.2,15.2,0,0,1,181,40.85a2.6,2.6,0,0,1,1.58-2.57,7.85,7.85,0,0,1,4.16-.56,12.07,12.07,0,0,1,3.21.7l-0.44.9a11.44,11.44,0,0,0-2.75-.7,4.73,4.73,0,0,0-2.93.42,2.14,2.14,0,0,0-1.08,2,11.48,11.48,0,0,0,1.12,4.49,3.88,3.88,0,0,0,2.91,2.19,6.38,6.38,0,0,0,2.92-.38Z" transform="translate(-22.49 -35.28)"/><path class="cls-2" d="M202,41.43a8.9,8.9,0,0,0-2.65-1,4.6,4.6,0,0,0-2.16,0,0.94,0.94,0,0,0-.79.9,1.21,1.21,0,0,0,.37.81,5.65,5.65,0,0,0,1.46,1c0.64,0.34,1,.51,1.6.87a8.88,8.88,0,0,1,1.8,1.28,4.71,4.71,0,0,1,1,1.46,3.87,3.87,0,0,1,.35,1.63,2.55,2.55,0,0,1-1.34,2.41,5.24,5.24,0,0,1-3.42.49A7.38,7.38,0,0,1,194.88,50l0.32-1.8a6.86,6.86,0,0,0,3,1.38,3.78,3.78,0,0,0,2.27-.15,1.37,1.37,0,0,0,.88-1.34,2.21,2.21,0,0,0-.44-1.27,7.71,7.71,0,0,0-2-1.66c-0.87-.55-1.5-1-1.91-1.21a6.55,6.55,0,0,1-1.14-.82,3.6,3.6,0,0,1-.8-1,2.24,2.24,0,0,1-.27-1.06A1.73,1.73,0,0,1,196,39.41a6.58,6.58,0,0,1,3.36-.25,11,11,0,0,1,3,.91Z" transform="translate(-22.49 -35.28)"/></svg>