<?xml version="1.0" encoding="utf-8"?>
<!-- Generator: Adobe Illustrator 19.2.0, SVG Export Plug-In . SVG Version: 6.00 Build 0)  -->
<svg version="1.1" id="Layer_3" xmlns="http://www.w3.org/2000/svg" xmlns:xlink="http://www.w3.org/1999/xlink" x="0px" y="0px"
	 viewBox="0 0 474.4 98.7" style="enable-background:new 0 0 474.4 98.7;" xml:space="preserve">
<style type="text/css">
	.st0{fill:#248C83;}
	.st1{font-family:'Casad-Serial-Bold';}
	.st2{font-size:20px;}
	.st3{fill:none;}
	.st4{font-size:16px;}
</style>
<title>trace_text1</title>
<text transform="matrix(1 0 0 1 0.62 17.22)" class="st0 st1 st2">This is a piece about d</text>
<text transform="matrix(1 0 0 1 197.52 17.22)" class="st0 st1 st2">a</text>
<text transform="matrix(1 0 0 1 206.78 17.22)" class="st0 st1 st2">ta t</text>
<text transform="matrix(1 0 0 1 234.7 17.22)" class="st0 st1 st2">r</text>
<text transform="matrix(1 0 0 1 241.76 17.22)" class="st0 st1 st2">a</text>
<text transform="matrix(1 0 0 1 251.16 17.22)" class="st0 st1 st2">ces and t</text>
<text transform="matrix(1 0 0 1 328.81 17.22)" class="st0 st1 st2">r</text>
<text transform="matrix(1 0 0 1 335.87 17.22)" class="st0 st1 st2">a</text>
<text transform="matrix(1 0 0 1 345.27 17.22)" class="st0 st1 st2">ces </text>
<text transform="matrix(1 0 0 1 378.97 17.22)" class="st0 st1 st2">o</text>
<text transform="matrix(1 0 0 1 389.67 17.22)" class="st0 st1 st2">f d</text>
<text transform="matrix(1 0 0 1 412.23 17.22)" class="st0 st1 st2">a</text>
<text transform="matrix(1 0 0 1 421.49 17.22)" class="st0 st1 st2">ta </text>
<text transform="matrix(1 0 0 1 0.62 41.22)" class="st0 st1 st2">An </text>
<text transform="matrix(1 0 0 1 30.92 41.22)" class="st0 st1 st2">e</text>
<text transform="matrix(1 0 0 1 40.58 41.22)" class="st0 st1 st2">x</text>
<text transform="matrix(1 0 0 1 50.28 41.22)" class="st0 st1 st2">e</text>
<text transform="matrix(1 0 0 1 60.16 41.22)" class="st0 st1 st2">r</text>
<text transform="matrix(1 0 0 1 67.14 41.22)" class="st0 st1 st2">cise </text>
<text transform="matrix(1 0 0 1 106.46 41.22)" class="st0 st1 st2">o</text>
<text transform="matrix(1 0 0 1 117.16 41.22)" class="st0 st1 st2">f t</text>
<text transform="matrix(1 0 0 1 135.14 41.22)" class="st0 st1 st2">r</text>
<text transform="matrix(1 0 0 1 142.2 41.22)" class="st0 st1 st2">a</text>
<text transform="matrix(1 0 0 1 151.6 41.22)" class="st0 st1 st2">cing d</text>
<text transform="matrix(1 0 0 1 205.34 41.22)" class="st0 st1 st2">a</text>
<text transform="matrix(1 0 0 1 214.6 41.22)" class="st0 st1 st2">ta, </text>
<text transform="matrix(1 0 0 1 240.26 41.22)" class="st0 st1 st2">t</text>
<text transform="matrix(1 0 0 1 246.36 41.22)" class="st0 st1 st2">wice </text>
<text transform="matrix(1 0 0 1 291.34 41.22)" class="st0 st1 st2">ov</text>
<text transform="matrix(1 0 0 1 310.58 41.22)" class="st0 st1 st2">er :</text>
<rect y="69" class="st3" width="481" height="50"/>
<text transform="matrix(1 0 0 1 0 80.6523)" class="st1 st4">(Thursday July 12th, 13th &amp; 14th 2018; New York City)</text>
</svg>
