<?xml version="1.0" encoding="utf-8"?>
<!-- Generator: Adobe Illustrator 19.2.0, SVG Export Plug-In . SVG Version: 6.00 Build 0)  -->
<svg version="1.1" id="Layer_1" xmlns="http://www.w3.org/2000/svg" xmlns:xlink="http://www.w3.org/1999/xlink" x="0px" y="0px"
	 viewBox="0 0 832 144.1" style="enable-background:new 0 0 832 144.1;" xml:space="preserve">
<style type="text/css">
	.st0{fill:#248C83;}
	.st1{font-family:'Casad-Serial-Bold';}
	.st2{font-size:22.3141px;}
	.st3{fill:none;}
	.st4{fill:#000706;}
	.st5{font-size:20px;}
</style>
<title>trace_text2</title>
<text transform="matrix(1 0 0 1 0 19.2124)" class="st0 st1 st2">H</text>
<text transform="matrix(1 0 0 1 15.8428 19.2124)" class="st0 st1 st2">o</text>
<text transform="matrix(1 0 0 1 27.4683 19.2124)" class="st0 st1 st2">w to colle</text>
<text transform="matrix(1 0 0 1 121.5 19.2124)" class="st0 st1 st2">c</text>
<text transform="matrix(1 0 0 1 132.2329 19.2124)" class="st0 st1 st2">t and visualize </text>
<text transform="matrix(1 0 0 1 276.3159 19.2124)" class="st0 st1 st2">y</text>
<text transform="matrix(1 0 0 1 286.1333 19.2124)" class="st0 st1 st2">our d</text>
<text transform="matrix(1 0 0 1 337.5337 19.2124)" class="st0 st1 st2">a</text>
<text transform="matrix(1 0 0 1 347.8657 19.2124)" class="st0 st1 st2">ta t</text>
<text transform="matrix(1 0 0 1 379.0171 19.2124)" class="st0 st1 st2">r</text>
<text transform="matrix(1 0 0 1 386.8931 19.2124)" class="st0 st1 st2">a</text>
<text transform="matrix(1 0 0 1 397.3813 19.2124)" class="st0 st1 st2">ces without </text>
<text transform="matrix(1 0 0 1 514.8418 19.2124)" class="st0 st1 st2">e</text>
<text transform="matrix(1 0 0 1 525.6191 19.2124)" class="st0 st1 st2">xploit</text>
<text transform="matrix(1 0 0 1 581.2041 19.2124)" class="st0 st1 st2">a</text>
<text transform="matrix(1 0 0 1 591.5352 19.2124)" class="st0 st1 st2">ti</text>
<text transform="matrix(1 0 0 1 604.8564 19.2124)" class="st0 st1 st2">v</text>
<text transform="matrix(1 0 0 1 614.6973 19.2124)" class="st0 st1 st2">e sur</text>
<text transform="matrix(1 0 0 1 664.1582 19.2124)" class="st0 st1 st2">v</text>
<text transform="matrix(1 0 0 1 674 19.2124)" class="st0 st1 st2">eillance:</text>
<rect y="42" class="st3" width="777" height="112.1"/>
<text transform="matrix(1 0 0 1 0 56.5649)"><tspan x="0" y="0" class="st4 st1 st5">1. Trace your movements over a Google Maps image using Photoshop and the brush tool.</tspan><tspan x="0" y="24" class="st4 st1 st5">2. Print out your digitally-produced data trace</tspan><tspan x="0" y="48" class="st4 st1 st5">3. Trace your data trace with Crayon</tspan><tspan x="0" y="72" class="st4 st1 st5">4. Scan your physical trace</tspan></text>
</svg>
